<svg version="1.2" xmlns="http://www.w3.org/2000/svg" viewBox="0 0 3600 2000" width="1000" height="556">
	<title>urban_racing_3-ai</title>
	<defs>
		<clipPath clipPathUnits="userSpaceOnUse" id="cp1">
			<path d="m2460.63 991.02l-41.9-165.05-12.21 1.54 0.43 157.81-39.69-4.21-83.9-170.67-11.57 4.25 40.77 160.61-42.04-4.46-53.09-209.1 76.38 8.1 66.95 135.6 11.75-2.76-0.33-124.52 77.41 8.22 53.09 209.11zm-291.15-55.53l-33.8-190.61-12.28 0.62-13.7 183.61-47.29-5.05-81.9-197-11.83 3.46 33.18 187.08-50.49-5.39-43.14-243.26 89.83 9.59 65.42 156.55 11.9-1.93 10.83-145.21 90.62 9.68 43.14 243.25zm-322.12-93.52l-43.88-206.32-12.25 0.93-11.4 196.94-56.5-7.07-99.83-214.58-11.68 3.9 42.98 202.11-60.42-7.56-36.1-169.74-12.26 1.34c0.05 5.26-0.25 10.41-0.89 15.3-1.71 13.16-6.49 24.43-14.21 33.51-7.72 9.06-16.64 15.13-26.5 18.02-9.35 2.77-20.52 4.17-33.2 4.17-7.06 0-14.74-0.43-22.82-1.29-13.32-1.42-28.3-3.96-44.53-7.55-15.85-3.52-29.7-8.63-41.16-15.2-11.52-6.61-22.86-15.6-33.71-26.73-10.8-11.07-19.04-22.27-24.5-33.27-9.05-18.19-15.13-34.23-18.07-47.68l-2.72-12.44-12.21 0.59c-0.44 3.7-1.25 7.15-2.41 10.25-3.56 9.51-9.57 16.66-18.38 21.88-5.61 3.31-14.19 5.75-25.5 7.25l-22.85 3.03 21.29 8.84c10.6 4.39 18.54 8.5 23.62 12.2 2.34 1.69 7.05 5.77 16.35 15.71 7.52 8.04 12.74 14.19 15.52 18.27l52.86 76.11-81.52-8.68-64.3-89.9c-8.86-12.56-16.08-20.78-22.04-25.08l-0.07-0.06c-8.07-5.66-16.69-9.01-25.6-9.96l-16.24-1.73 26.13 115.87-73.89-7.86-58.57-259.74-12.22 1.91 17.43 196.99-105.14-7.9-149.99-248.34 6.38 237.56-105.42-7.91-193.08-352.33 97.13 7.29 103.28 200.87 11.71-3-5.35-189.64 101.53 7.63 121.96 202.36 11.46-3.95-23.19-190.14 98.63 7.41 11.24 127.08 146.31 15.56c26.03 2.77 46.63 7.18 61.21 13.11 14.18 5.77 26.85 15.16 37.66 27.9 4.79 5.65 8.96 11.83 12.39 18.35l11.54-4.21-20.31-92.82 73.29 7.8 37.13 169.75c3.67 16.76 11.24 30.56 22.51 41.05 11.33 10.54 25.34 16.76 41.66 18.5 2.74 0.29 5.39 0.44 7.89 0.44 13.03 0 23.01-3.97 29.68-11.79 7.86-9.25 9.88-22.93 6-40.67l-36.25-165.72 73.29 7.8 21.65 98.96 116.35 14.56 79.77 170.64 11.8-2.27 9.03-155.79 106.91 13.38 56.01 263.36zm-734.42-275.66l40.9 4.35c1.14 0.12 2.44 0.18 3.95 0.18 4.55 0 10.91-0.54 19.47-1.65 7.38-0.78 13.14-4.41 16.66-10.52 3.34-5.79 4.14-12.66 2.39-20.43-2.38-10.57-7.61-19.18-15.53-25.59-7.86-6.38-20.03-10.36-37.19-12.19l-46.61-4.95z"/>
		</clipPath>
	</defs>
	<style>
		.s0 { fill: #fd4344 } 
		.s1 { fill: #ffffff } 
		.s2 { fill: #1c1e1f } 
		.s3 { fill: #ffd830 } 
		.s4 { fill: #14b0c4 } 
		.s5 { fill: #000000 } 
		.s6 { fill: #001b38 } 
		.s7 { fill: #e10000 } 
		.s8 { fill: #920000 } 
		.s9 { fill: #f27b64 } 
		.s10 { fill: #b3b3b3 } 
		.s11 { fill: #3b404b } 
		.s12 { fill: #666666 } 
		.s13 { fill: #808080 } 
		.s14 { fill: #ff7d00 } 
		.s15 { fill: #b2b2b2 } 
	</style>
	<g id="_Artboards_">
	</g>
	<g id="BG">
		<path id="Shape 1" class="s0" d="m0 1v2000l3102 2.4-1242-2010z"/>
		<path id="Shape 1 copy" class="s1" d="m0 1.6v2000.4l2892 3.4-1200-2012z"/>
	</g>
	<g id="Design">
		<g id="&lt;Group&gt;">
			<g id="&lt;Group&gt;">
				<g id="&lt;Group&gt;">
					<path id="&lt;Compound Path&gt;" fill-rule="evenodd" class="s2" d="m1787.1 571.8l68.9 61.7 47.2 100.5-3.4-19.2 48.9-46.9 52.8 57.8 67.8 20.8 59.2-59.4 52.7 57.8 28 61.9 48-46.2 39.8 56.3 68.1 7.3 48.9-46.9 57.3 40.3 87.6 191-48.9 46.9-55.2-5.9-9.2-36.4-33.3 31.9-50-5.3-11-34.6-31.4 30.1-55.2-5.9-13.3-52.3-24.8 23.7-63.3-6.7-7.9-44.5 8-7.6-34.7-143.1 26.7 150.7-40.9 39.3-57.3-6.2-15.4-37.1-33.3 31.9-63.3-6.7-13.7-77.2-16.7 16.1-73.5-9.2-10.8-51-45.7 43.9-66.5-8.3-19.7-42.4-36.8 35.3-73.4-9.2-31.5-147.9c0 0-14.7 21.5-33.6 37.6-5.3 4.5-11.6 7.2-18 9.1q-23.1 6.9-58.4 3.1-20.5-2.2-45.2-7.7-6.4-1.4-12.4-3.1l-45.4 43.5-97.7-10.4-65.9-92.2q-12.6-17.9-20.7-23.6-10.8-7.7-22.7-8.9l-7.6-0.8 75 68.9-48.9 46.9-86.9-9.2-18.4-81.9-23 22.1-115.7-8.7-139.5-231 54.8 174.1-48.8 46.9-115.6-8.7-200.2-365.3 48.8-46.9 63.1 55.3 104.9 204-5.5-196.5 48.8-46.9 62.7 55.2 123.7 205.1-24.1-197.6 48.8-46.9 62.6 55.3 11.2 127.2 141.3 15q40.1 4.3 62.8 13.6 22.8 9.2 40.1 29.6 7.7 9.1 13.1 19.5l-22.1-101.2 48.9-46.9 37.4 56 38.1 174.2q5.1 23.3 20.6 37.8 15.6 14.5 38.1 16.9 22.4 2.4 32.2-9.2 9.9-11.6 4.7-35.4l-38.1-174.1 48.9-46.9 37.4 56.1 21.7 99.1 115.4 14.4 56.1 8.4 29 97.9 5.5-95zm-711.1 95.6l-67-157.4 41.1 182.2zm316.9 89.1l-45.8-16.8q5.8 4.1 11.7 7.5 13.4 7.7 30.6 12.7zm-45.8-16.9q-12-8.5-23.4-20.2-16.9-17.4-25.6-34.9-14-28.1-18.6-49.1l-2.7-12.4q-0.7 6.3-2.8 11.7-6 16.2-21 25c-6.3 3.8-8.4 17-2.9 21q5.5 4 17.2 16.5 11.7 12.4 16.1 19zm363.6 91.5l-93.6-163.8 81.5 175.4zm123 15.4l-37.1-156.7 34 159.7zm-644.3-254q-3.1-13.8-13.4-22.2-10.2-8.3-33.9-10.8l-38-4 13.1 58 36.4 3.9q6 0.6 22.1-1.5 8.2-0.8 12-7.4 3.8-6.7 1.7-16zm868 338.1l-83.5-148.3 67.9 163.3zm311.4 57.8l-62.9-125.3 45.4 142.1zm92.4 9.8l-49.3-117.9 33.7 132.8z"/>
				</g>
			</g>
			<g id="&lt;Group&gt;">
				<g id="&lt;Group&gt;">
					<path id="&lt;Compound Path&gt;" fill-rule="evenodd" class="s3" d="m1904.9 586.6l58.8 276.2-73.5-9.2-44.8-210.7-11.8 203.6-66.4-8.3-101.3-217.7 44.8 210.6-73.5-9.2-37-174q0.1 8.3-0.9 16.1-2.8 21.7-15.7 36.8-12.8 15-29.4 19.9-23.1 6.9-58.5 3.1-20.4-2.2-45.2-7.7-24.8-5.5-42.9-15.8-18.1-10.4-35-27.8-17-17.4-25.6-34.9-14-28.1-18.6-49.1l-2.7-12.4q-0.8 6.3-2.8 11.7-6.1 16.2-21 25-9.6 5.7-27.9 8.1 16.7 6.9 24.9 12.9 5.6 4 17.3 16.5 11.6 12.4 16.1 19l60.5 87.2-97.7-10.4-66-92.2q-12.6-17.9-20.6-23.6-10.8-7.7-22.7-8.9l-7.6-0.8 26.1 115.8-86.9-9.2-59.5-264.1 18 204.3-115.6-8.7-139.5-231 5.9 221-115.6-8.7-200.2-365.3 112 8.4 104.9 204-5.6-196.5 111.6 8.3 123.6 205.1-24.1-197.6 111.4 8.4 11.3 127.2 141.2 15q40.1 4.3 62.9 13.6 22.8 9.2 40.1 29.6 7.6 9.1 13.1 19.5l-22.1-101.2 86.3 9.1 38 174.2q5.1 23.3 20.7 37.8 15.6 14.5 38.1 16.9 22.3 2.4 32.2-9.2 9.9-11.6 4.7-35.4l-38.1-174.1 86.3 9.2 21.6 99.1 115.4 14.4 81.3 173.7 9.4-162.4zm-666.7-40.9q-3.1-13.9-13.4-22.2-10.2-8.3-33.9-10.8l-38-4.1 13.1 58.1 36.4 3.9q6 0.6 22.1-1.5 8.2-0.8 12-7.5 3.8-6.6 1.7-15.9zm991.9 152.3l45.4 256-63.4-6.8-34.6-195.2-14.1 190-57.4-6.1-83.3-200.4 34.6 195.2-63.3-6.8-45.4-255.9 101.7 10.8 66.8 160 11.4-151.6zm273.5 304.7l-42.9-169.2 0.4 164.7-50-5.3-85.4-173.7 43 169.2-55.2-5.8-56.3-222 88.6 9.4 68.4 138.7-0.3-131.4 88.6 9.4 56.3 221.9z"/>
				</g>
			</g>
			<g id="&lt;Clip Group&gt;">
				<g id="&lt;Group&gt;">
					<g id="&lt;Group&gt;" clip-path="url(#cp1)">
					</g>
				</g>
			</g>
		</g>
		<g id="&lt;Group&gt;">
			<g id="&lt;Group&gt;">
				<path id="&lt;Compound Path&gt;" fill-rule="evenodd" class="s1" d="m739 1101.6c-39.2 0-69.3-2.1-80.4-5.7-10.5-3.3-23.5-7-44.5-7.8-4-0.1-10.7-0.2-19.8-0.2-33.7 0-91.3 1-91.9 1h-1.1l-0.5-1c0-0.2-0.7-1.9 0.4-3.9 1.2-2.3 4.1-3.9 8.7-4.8 8.2-1.6 77.8-15.2 99.2-19.4-11.1-3.7-34.5-11.4-44.8-13.3-8.1-1.5-18.5-1.9-25.8-1.9-7.1 0-12.7 0.3-14.3 0.4-1.7 0.1-5.1 1.5-9.3 3.2-9.7 4-24.2 10-41.4 10-17.6 0-35.1-2.7-47.8-4.6-5.3-0.8-9.7-1.5-13.1-1.8-3.4-0.4-16.7-0.5-39.7-0.5-39.2 0-93.4 0.5-94 0.5h-0.5l-0.4-0.3c-1-0.6-2.6-2.2-2.4-4.5 0.2-3 3.3-5.6 9.4-8.2 9.9-4.1 29.4-11.4 50.4-14.9 2.4-6.6 11.3-17.3 30.5-18.2-5-7-14.9-26.7 5.1-50.4 10.1-11.9 25.8-18.3 45.4-18.3 21.1 0 46 7.4 66.6 19.8 19.2 11.6 36.2 17.5 50.4 17.5 9.3 0 17.4-2.6 24.2-7.7 16.3-12.1 23.4-40.7 7.5-62.5-13.9-19.1-44.3-26-61.3-26-2.5 0-4.8 0.2-6.8 0.4-3.8 0.6-7.1 1.2-10 1.8-4.4 0.8-8.3 1.6-12.2 1.6-5.4 0-10.6-1.4-16.7-4.7-16.6-8.7-15.6-31.7-9.7-44.5 5.3-11.7 24-14.8 33.6-15.7-4-2.6-10.1-7.2-16.3-14.4-9.9-11.5-22.1-31.9-24.2-64.3-1.5-21.4 2.8-37.5 12.6-48.1 10.3-10.9 24.2-13.2 34.1-13.2 6.5 0 13.4 1 19.5 2.9 8.4 2.6 19.2 4.2 29.1 4.2 12.2 0 40.8-2.6 41.9-26.3 0.4-9.5-2.8-18-9.6-25.1-12.1-12.7-32.8-18.4-48-18.4-4.2 0-8.1 0.5-11.1 1.3-15.5 4.5-16.7 14.4-18 23.9-0.3 2.6-0.6 4.9-1.1 7.2-1.5 6-8.8 9.7-19.1 9.7-8 0-24.4-2.2-45.4-17-27.8-19.6-38.3-47.4-28.7-76.1 3.8-11.6 9.5-16.2 14.1-19.8 5.4-4.3 8.6-6.9 6.1-18.7-2.1-9.6-5.6-13.8-9.8-18.5-4-4.6-8.5-9.8-12.3-20.7-2.4-6.9-3-11.8-3.4-15.4-1-7.7-1.3-9.8-17.8-17l-1.1-0.5 0.1-1.2c0-0.4 0.5-3.7 6.3-3.7q2.4 0 5.7 0.8c9.2 2.1 21 9.6 23.9 23.6 2.6 12.2 5.6 23.5 14.7 27.8 1.3 0.7 2.5 1 3.5 1 2.2 0 4.1-1.4 6.5-3.2 3.3-2.5 7.5-5.6 14.6-6.3q1.2-0.2 2.5-0.2c16.3 0 41.3 13.8 45.2 36.2 1.9 10.6 1 29.1-25.7 33.8-5.9 1.1-11.6 5.2-14.2 10.4-1.4 2.8-2.5 7.2 0 12.3 2.7 5.4 11.4 9 21.7 9 10.6 0 20.6-3.7 27.4-10.2 3.6-3.3 7.1-7.5 10.9-11.8 13.1-15.2 29.4-34.1 57-34.4h0.6c30.1 0 49.2 23.6 53.7 30 3-2.2 10-6.6 19.7-6.6 4.7 0 9.4 1 14 3 13.3 5.8 15.1 22.3 15.3 27.4 4.2 0.6 16.9 2.7 31.9 9 16.8 7 39.5 20.8 52.8 46.5 15 29 14.7 59.8 14.4 89.7-0.2 21.3-0.4 41.5 4.7 60.6 6.7 24.9 17.9 43.8 33.3 56 11.9 9.4 26.6 14.9 42.4 15.9q1.7 0.1 3.3 0.1c14.6 0 27.4-5.9 34.2-15.7 6.1-8.7 6.8-20 2.1-32.4-6.4-16.9-25.5-24.5-41.6-24.5-8.8 0-15.9 2.4-18 6l-0.5 1-1.1-0.2c-0.4 0-7.8-1-15.5-8.1-7-6.4-15.5-19.4-16.4-44.7-0.5-14 3.5-25.5 11.8-34.1 10-10.3 26-16 45.2-16 10.1 0 20.3 1.6 29.6 4.6 23.4 7.7 36.8 21.8 43.9 32.3 6 8.8 8.7 16.5 9.6 19.7 1.2-0.2 2.9-0.3 5.1-0.3 8.3 0 24.3 2.5 38.1 19.5 17 20.9 11 47.6 8.6 55.8q1.5-0.1 3.7-0.1c13.1 0 45.4 4 63.3 41 12.7 26.3 9.2 52.7 4.1 70.2-5.4 18.4-14.6 33.4-22.6 41.9 4.1-0.6 10-1.2 16.9-1.2 12.8 0 23.8 2.2 32.4 6.7 11.5 6 18.7 15.6 21.5 28.7 2.5-0.3 7.6-0.8 13.1-0.8 10.6 0 17.6 1.7 20.9 5.1q1.7 1.8 2.1 4c1 0 2.5 0 4.3 0 6.5 0 15.5 0.4 21.3 2.4 3.2 1.2 7.7 1.5 12 1.9 7.3 0.6 14.2 1.1 13.8 6.2l-0.1 1.5-1.5 0.1c-7 0.1-18.5 0.3-19.7 0.5-0.1 0-0.4 0.1-0.7 0.2-1.6 0.6-4.7 1.8-12.5 1.8-5 0-7.7-0.5-10.1-0.9-2-0.3-3.6-0.6-6.3-0.6q-0.7 0-1.6 0.1c-3.5 0.1-4.9 0.7-6.3 1.4-1.5 0.7-3.1 1.4-6.7 1.4-5.8 0-65.2 1.6-76.3 1.9-0.1 0.9-0.4 1.9-1.1 3-2.4 3.7-8.5 5.8-18.1 6.3-16.8 1-49.7 1.1-60.7 1.2 2.2 3.1 3.9 8 1.7 13.5-2.8 7.2-25.6 8.7-44.2 8.7-3 0-4.8 0-4.9 0h-118.5c2.7 3.4 6.1 9.3 2.9 14.3-5.7 8.8-51.3 10.1-77.9 10.1zm-339.7-405.3q-1.6 0-3.2-0.2c-9.8-0.9-12.2-6.9-14.8-13.2-1.8-4.5-3.9-9.6-9-14.2-12.5-11-16.7-14.2-16.7-14.2l-1.5-1.2 1.3-1.4c0.3-0.2 2.3-2 6.6-2 3.1 0 6.6 0.9 10.5 2.7 1.4 0.6 2.9 1.4 4.5 2.1 7 3.4 15.7 7.6 22.5 8.5q2.7 0.3 5.2 0.6c6 0.7 11.3 1.4 17.9 3.2 6.4 1.7 11.3 4 13.6 6.2 0.7 0.7 1 1.7 0.8 2.7-0.2 1-0.8 1.9-1.8 2.4-1.7 0.8-5 2.6-7.4 5-4.8 4.8-15 13-28.4 13q-0.1 0-0.1 0zm206.7-175.5c-0.1-0.1-6-5.2-17.7-5.2-6.6 0-11.7 0.6-16.6 1.2-4.3 0.6-8.3 1.1-12.9 1.1-9.9 0-22.2-5.7-37.6-17.3-15-11.3-19.9-20.7-20.1-21.1l-3.1-5.9 5.5 3.8c0.2 0.1 14.1 9.6 22.3 10.4 8.8 0.9 11.8 1.1 18 4.4 2.1 1.1 3 1.3 3.9 1.3 0.8 0 1.7-0.2 3.1-0.5 2.1-0.4 5.2-1.1 10.4-1.6 6.1-0.5 11.8-0.7 16.6-0.7 6.6 0 11.1 0.5 13.4 1.4 4.1 1.8 16.4 18.2 17.8 25q0.5 2.3-0.6 3.6l-1.1 1.2zm-258.8-68c-2.5 0-5.2-0.4-7.9-1.1-4.9-1.2-8-4.7-11.3-8.4-3.5-4.1-7.3-8.3-13.7-9.8l-0.7-0.2-0.4-0.6c-0.4-0.8-0.7-2 0-3.2 1.1-1.9 3.7-2.7 8.2-2.7 8.8 0 15.2 5.1 20.3 9.2l1 0.7c4.9 3.9 10.8 7 17.2 9l2.7 0.9-2.1 1.9c-0.2 0.2-4.6 4.3-13.2 4.3q0 0-0.1 0z"/>
			</g>
			<path id="&lt;Compound Path&gt;" fill-rule="evenodd" class="s4" d="m503 607.1c-21.3 8.2-18.6 26.9-27.6 33-13.5 9-46.5-6.6-63.4-33-6.4-10-9-23.5-8.6-30.3 5.7 15.3 21.3 34.6 42.3 36.3 24.8 1.9 39.5-11.9 47.4-13.6 7.4-1.6 23.3-2.2 48.6 8.6-5.6-1.3-26.6-5.7-38.7-1zm-89.6 65.2c4.4-2.5 8.7-3.7 8.7-3.7 6.4 1.7 10.9 3.9 12.9 5.8 0.7 0.7 0.4 1.9-0.5 2.4-1.9 0.9-5.3 2.7-7.9 5.3-3.7 3.7-15 13.9-30.3 12.4-15.4-1.5-10.2-15.8-22.9-27-9.1-8-13.7-11.9-15.7-13.5 4.3 3.2 11.1 6.5 19.8 12.8 8.1 5.9 13.3 17.2 22.3 17.5 7 0.2 10.2-10 13.6-12zm-56.8-19.2c0 0 0.4 0.3 1.1 0.9q-0.6-0.4-1.1-0.9zm113.9-93.4c-10.5 1.8-21.4 13.1-15.4 25.1 0.8 1.5 1.9 2.8 3.3 4-6-4.1-16-13-18.5-27.3-3.7-20.9 14.3-35.2 19.4-27 5 8.1 15.1 12.3 26.1 5 8.6-5.7 8.2-14.5 7.6-18.1 0.8 2.1 1.5 4.2 1.9 6.4 4.1 23.6-13.9 30-24.4 31.9zm117.8-45.8c-12.6 0-19.9 2.3-29.5 2.3q-7.4 0-16.8-4.5c11.5 3.3 20.1-1.9 27.4-6.9 1.5-1.1 6.7-3.4 8.4-3.9 7.1-2.1 12.9-3 18.1 2.2 6.1 5.9 13.1 14.4 11.3 16.5 0 0-6.2-5.7-18.9-5.7zm-242.7 523.6c3.8-20.6 34.8-21.4 44.8-20.5q1.5 0.2 3.1 0.3c0 0-3.4-25.3 12.9-32.6 0 0 16.2 31.8 61.2 34.6 45 2.8 47.3-16.6 47.3-16.6 0 0 26.5 14 49.5-5.1 17.4-14.4 14-50.6 11.3-67.8-0.3-9.1-3.2-18.4-9.2-26.7-16.1-22.1-53.3-28.5-69.7-26.2-16.5 2.2-22.9 6.7-37.9-1.1-15-7.9-15-29.3-9-42.4 0 0-4.7 15.2 13.9 21.9 18.5 6.8 51.1-13.2 78.7 1.1 0 0-21.1-33.4-54.7-38 0 0-40.5-18.4-44.7-80.3-0.9-14.4 0.8-25.5 4.3-34-1.1 4.4-6.6 29.4 7.4 49.4 15.3 22.1 48 26.3 48 26.3 0 0-12.8-19.2-5.7-50.3 0 0 2.3 25.5 27 39.4 26.9 15.1 54 7.9 54 7.9 0 0-13.5 19.8-55.5 15.7 0 0 9.8 28.5 45.8 39.4 36 10.9 57.3-13.5 57.3-13.5 0 0 5.7 33.7 35.7 42.4 29.9 8.6 46.1-9 68.9-6.8 0 0-42.3 13.1-45.7 51.4-3.4 38.2 19.9 81 64.9 93.7 45 12.8 83.2-17.2 72-56.2 0 0 12.7 17.6 45.7 10.1 33-7.5 49.1-47.6 49.1-47.6 0 0-6.8 42.8 36.4 66 31.5 16.8 60 15 60 15 0 0-40.5 15-46.1 31.5-5.7 16.5 32 25 91.4 25 0 0 3 8.1-17.5 9.3-20.5 1.1-64.4 1.1-64.4 1.1 0 0 7.3 5.9 4 14.6-3.4 8.7-47.6 7.6-47.6 7.6h-122.3c0 0 9.4 8.7 5.3 15.1-4.2 6.4-36 9.4-76.5 9.4-40.5 0-69.4-2.3-79.9-5.7-10.5-3.3-23.6-7.1-45-7.8-21.4-0.8-111.7 0.7-111.7 0.7 0 0-1.9-4.5 7.8-6.4 9.8-1.8 105.4-20.6 105.4-20.6 0 0-37.1-12.7-51-15.3-13.9-2.7-34.1-1.9-40.5-1.5-6.4 0.3-25.8 13.1-50.6 13.1-24.7 0-49.1-5.3-60.7-6.4-11.7-1.1-133.9 0-133.9 0 4.5-11 66.7-12.6 66.7-12.6zm516-167.7c25.5-0.9 47.5-19.6 36-50.3-10.9-28.9-55.9-30.4-62.6-18.7 0 0-11.8-1.4-20.7-14.9 0-3.1 1.1-31.5 52.1-29.4 0 0 3.4 19.1 22.9 29.6 19.5 10.5 31.1 9.8 33.4 15 2.2 5.2 8.3 68.4-61.1 68.7zm-5 152.2c24.4 5 48.8-11.8 88.2 15.8 0 0-34.7-61.1-78.1-59.3-43.5 1.8-34.4 38.5-10.1 43.5zm-240.2-21.5c1.3 1.8 3.6 2.6 5.8 1.8 7.3-2.4 28.5-5.7 76.6 11.1 0 0-12-37.9-47.6-51.8-28.1-10.9-59.4 6.2-34.8 38.9zm146.7-165.1c-6.5 0.2-11.8-4.8-12-11.3-1.2-34.9-25.8-45.8-25.8-45.8-41.6 20.2-67.5 2.2-67.5 2.2 0 0 37.7 0 55.7-29.2 18-29.3 6.7-65.3 6.7-65.3 14.6 13.5 19.1 34.9 19.1 34.9 0 0 17.2-11.5 20.5-38.4 3.2 15.8 6.8 31.2 3.1 64.8-3.3 30.7 5.7 67.1 19.5 88.5-5.1-0.8-15.5-0.5-19.3-0.4z"/>
			<path id="&lt;Compound Path&gt;" fill-rule="evenodd" class="s5" d="m1203.3 1037.2l-0.2 3.1h-3.1c-8.4 0.2-17.8 0.4-19.4 0.5-0.1 0.1-0.3 0.1-0.4 0.2-1.8 0.7-5 1.9-13.1 1.9-5.1 0-7.9-0.5-10.4-0.9-1.9-0.3-3.5-0.6-6-0.6q-0.7 0-1.5 0.1c-3.2 0.1-4.4 0.6-5.7 1.2-1.6 0.7-3.5 1.6-7.4 1.6-5.5 0-61.1 1.5-74.9 1.8q-0.3 1.2-1.1 2.3c-2.7 4.2-9.1 6.5-19.4 7.1-15.6 0.9-44.9 1.1-58 1.1 1.6 3.4 2.3 7.7 0.5 12.5-1.7 4.4-8.1 7.1-20.8 8.6-9.2 1-19.6 1.2-25 1.2-2.8 0-4.6 0-4.9 0h-115.3c2.5 4.1 3.9 9.1 1.1 13.5-1.8 2.8-6.5 6.3-27.1 8.6-13.3 1.5-31.3 2.3-52.2 2.3-39.4 0-69.7-2.1-80.9-5.8-10.4-3.3-23.3-6.9-44.1-7.7-3.9-0.1-10.6-0.2-19.7-0.2-33.7 0-91.3 1-91.9 1h-2.2l-0.9-2.1c-0.5-1.2-0.7-3.3 0.4-5.3 1.5-2.8 4.8-4.7 9.9-5.6 7.5-1.5 66.7-13.1 92.9-18.2-12-4-29.9-9.6-38.5-11.3-6.4-1.2-15.2-1.8-25.5-1.8-7 0-12.6 0.3-14.2 0.4-1.5 0.1-5 1.5-8.8 3.1-9.7 4-24.5 10-42 10-17.8 0-35.3-2.6-48.1-4.6-5.2-0.8-9.7-1.4-13-1.8-2.2-0.2-11-0.4-39.5-0.4-39.2 0-93.4 0.4-94 0.5h-0.9l-0.8-0.5c-1.7-1-3.5-3.2-3.3-6.1 0.4-4.9 6.1-7.8 10.5-9.6 9.8-4.1 29-11.4 49.8-14.9 0.9-2.1 2.8-5.3 6-8.4 4.1-4 11.1-8.6 22.7-9.7-1.7-2.7-3.4-6.4-4.5-10.8-2.3-9.1-2.2-23.3 11.3-39.3 10.4-12.3 26.5-18.8 46.7-18.8 21.4 0 46.7 7.4 67.5 20 18.9 11.4 35.6 17.2 49.5 17.2 8.9 0 16.7-2.5 23.2-7.3 8.1-6 13.6-15.8 15.3-26.9 1.8-11.8-1.1-23.7-8.1-33.3-13.5-18.6-43.3-25.3-60-25.3q-3.7 0-6.6 0.4c-3.7 0.5-7 1.1-9.9 1.7-4.5 0.9-8.4 1.7-12.5 1.7-5.7 0-11.1-1.5-17.5-4.9-7.7-4-12.7-11.7-14.1-21.7-1.2-8.1 0.2-17.5 3.6-25 4.9-10.8 20.2-14.7 30.7-16.1-3.8-2.8-8.4-6.8-13-12.2-10.1-11.7-22.5-32.4-24.7-65.3-1.5-21.9 3-38.4 13.1-49.3 10.7-11.4 25.1-13.8 35.3-13.8 8.5 0 15.6 1.7 20 3 8.2 2.6 18.9 4.1 28.6 4.1 11.3 0 20.9-1.9 27.8-5.6 7.9-4.2 12-10.4 12.4-19 0.4-9.1-2.6-17.1-9.1-23.9-11.8-12.4-32-17.9-46.8-17.9-4.1 0-7.8 0.4-10.7 1.3-14.4 4.1-15.5 13-16.7 22.5-0.3 2.4-0.6 4.9-1.2 7.3-1.6 6.8-9.6 11-20.7 11-19 0-37.2-10.9-46.3-17.3-28.6-20.1-39.3-48.5-29.4-78.1 4-12 10.2-17 14.7-20.6 5.1-4.1 7.7-6.1 5.4-17-1.9-9.2-5.2-12.9-9.4-17.7-4.1-4.7-8.7-10.1-12.6-21.3-2.4-7-3-12-3.5-15.7-0.5-4-0.8-5.8-2.4-7.5-2-2.2-6.3-4.6-14.4-8.1l-2.2-1 0.2-2.4c0.2-2 2.1-5.3 8-5.3q2.6 0 6.1 0.8c9.7 2.3 22.1 10.2 25.2 24.9 2.4 11.8 5.3 22.7 13.7 26.7q1.6 0.8 2.8 0.8c1.6 0 3.1-1 5.5-2.8 3.3-2.5 7.8-5.9 15.4-6.7q1.3-0.2 2.7-0.2c8.6 0 19.2 3.7 27.8 9.7 10.4 7.2 17.2 17.1 19.1 27.9 2 11.6-0.6 20.7-7.8 27.2-4.7 4.2-11.2 7.1-19.3 8.6-5.4 0.9-10.6 4.7-13 9.4-1.8 3.6-1.8 7.3 0 10.9 2.4 4.8 10.5 8 20.2 8 10.2 0 19.8-3.5 26.3-9.7 3.4-3.3 7-7.4 10.7-11.7 13.4-15.5 30-34.6 58.3-35q0.3 0 0.6 0c14.8 0 29.2 5.6 41.7 16.2 5.9 5.1 10.1 10.1 12.4 13.2 3.7-2.5 10.4-6 19.3-6 4.9 0 9.9 1.1 14.7 3.2 13.1 5.7 15.7 20.9 16.2 27.5 5.3 0.8 17.2 3.1 31 8.8 24.4 10.3 42.9 26.6 53.6 47.3 15.2 29.4 14.9 60.5 14.6 90.5-0.2 21.2-0.4 41.3 4.6 60.2 6.6 24.6 17.6 43.1 32.8 55.1 11.6 9.2 25.9 14.6 41.4 15.5q1.6 0.1 3.2 0.1c14.1 0 26.3-5.6 32.8-14.9 5.7-8.3 6.4-19 1.9-30.9-6-16.2-24.5-23.4-40-23.4-9.3 0-15.1 2.7-16.5 5.1l-1.2 1.9-2.1-0.2c-0.4 0-8.4-1.1-16.5-8.5-7.2-6.7-16-20.1-16.9-45.9-0.5-14.5 3.6-26.4 12.3-35.4 10.3-10.6 26.8-16.5 46.4-16.5 10.2 0 20.7 1.6 30.1 4.7 23.8 7.9 37.5 22.3 44.8 33 5.4 7.9 8.2 14.9 9.4 18.8 1.1-0.1 2.4-0.2 3.9-0.2 8.6 0 25.2 2.6 39.4 20.2 8.5 10.4 12.6 24.1 11.8 39.6-0.3 6.4-1.4 11.8-2.3 15.4q0.7 0 1.5 0c13.4 0 46.5 4.1 64.8 42 13 26.7 9.4 53.6 4.2 71.3-4.8 16.5-12.7 30.3-20 39.3 3.6-0.4 7.9-0.7 12.7-0.7 13.1 0 24.3 2.3 33.2 7 11.5 5.9 18.9 15.4 22 28.2 2.8-0.3 7.1-0.6 11.8-0.6 11.2 0 18.4 1.9 22.1 5.7q1.5 1.5 2.1 3.4 1.4 0 3.1 0c6.7 0 15.8 0.4 21.8 2.5 3.1 1.1 7.4 1.5 11.6 1.8 3.5 0.3 6.8 0.6 9.3 1.3 5.6 1.5 6.2 4.8 6.1 6.7zm-3.3-0.2c0.3-5.6-16-3.3-24.8-6.4-5.6-2-14.7-2.4-20.7-2.4-3.5 0-5.9 0.2-5.9 0.2 0.3-7.6-11.3-9.2-21.4-9.2-7.6 0-14.4 0.9-14.4 0.9-5.6-29.8-32.7-35.6-52.6-35.6-12.4 0-22 2.2-22 2.2 17.6-14.6 44.6-67.5 22.1-113.9-17.4-36.1-48.6-40.1-61.8-40.1-3.8 0-6.1 0.3-6.1 0.3 0 0 12-32.6-7.5-56.6-13.2-16.3-28.4-19-36.8-19-3.9 0-6.3 0.6-6.3 0.6 0 0-8.4-37.7-52.9-52.3-8.8-2.9-18.9-4.6-29-4.6-28.4 0-56.6 13.2-55.3 48.5 1.7 47.8 30.4 51.2 30.4 51.2 2.4-4.3 10.1-6.8 19.4-6.8 15.9 0 36.3 7.3 43.2 25.5 11.8 31.5-11.7 50.4-37.9 50.4q-1.7 0-3.4-0.1c-27.5-1.7-62.2-17.3-77.2-73.2-12.5-46.5 6.4-101-18.9-149.9-25.4-49-85-54.8-85-54.8 0 0 0.4-21-14.2-27.4-4.9-2.1-9.4-2.9-13.4-2.9-12.2 0-20 7.4-20 7.4 0 0-19.3-30.7-53.4-30.7q-0.3 0-0.6 0c-34.5 0.4-50.6 30.4-66.7 45.7-7.8 7.5-18.7 10.7-28.6 10.7-10.7 0-20.1-3.7-23.2-9.9-6-12 4.9-23.3 15.4-25.1 10.5-1.9 28.5-8.3 24.4-31.9-3.9-22.4-28.8-34.8-43.6-34.8q-1.2 0-2.4 0.1c-11.8 1.3-14.9 9.6-21.2 9.6-1.2 0-2.6-0.4-4.3-1.1-9.7-4.7-12.9-16.5-15.5-29.1-2.6-12.6-13.1-20.1-22.7-22.3-2.2-0.5-3.9-0.7-5.3-0.7-4.4 0-4.6 2.2-4.6 2.2 25.1 10.9 14.6 11.6 22.1 33.4 7.5 21.7 18 19.8 22.1 39.3 5 23.4-12 14.6-20.2 39.4-8.3 24.7-2.3 52.9 28.1 74.2 17.1 12.1 33 16.7 44.4 16.7 9.7 0 16.2-3.4 17.5-8.4 2.6-10.9-0.4-26.3 20.2-32.3 3.2-0.9 7.2-1.4 11.6-1.4 23.9 0 60.7 14 59.3 45.3-1 21.2-22.5 27.8-43.6 27.8-10.9 0-21.7-1.7-29.6-4.2-5.4-1.7-12-2.8-19-2.8-22.5 0-48.2 12.2-45.1 59.4 4.2 61.9 44.7 80.3 44.7 80.3-6 0-31.9 1.9-37.9 15-6 13.1-6 34.5 9 42.4 6.4 3.3 11.2 4.4 15.9 4.4 6.3 0 12.5-2 22-3.3 2-0.3 4.4-0.4 7-0.4 18.3 0 48.6 7.2 62.7 26.6 16.1 22.1 9.7 51.8-7.9 64.9-7.1 5.3-15.5 7.9-25.2 7.9-14.4 0-31.6-5.8-51.3-17.7-18.5-11.1-43.3-19.5-65.7-19.5-17.5 0-33.5 5-44.1 17.7-24.4 28.8-3 51-3 51q-0.4 0-0.9 0c-26.6 0-31.8 18-31.8 18-18.7 3-37.4 9.3-50.9 15-13.5 5.6-6.8 9.7-6.8 9.7 0 0 54.3-0.5 94-0.5 19.8 0 36 0.1 39.9 0.5 11.6 1.1 36 6.4 60.7 6.4 24.8 0 44.2-12.8 50.6-13.1 2.8-0.2 8.1-0.4 14.4-0.4 8.3 0 18.2 0.4 26.1 1.9 13.9 2.6 51 15.3 51 15.3 0 0-95.6 18.8-105.4 20.6-9.7 1.9-7.8 6.4-7.8 6.4 0 0 57.8-0.9 91.9-0.9 8.5 0 15.5 0 19.8 0.2 21.4 0.7 34.5 4.5 45 7.8 10.5 3.4 39.4 5.7 79.9 5.7 40.5 0 72.3-3 76.5-9.4 4.1-6.4-5.3-15.1-5.3-15.1h122.3c0 0 1.9 0.1 4.9 0.1 11.5 0 40-0.8 42.7-7.7 3.3-8.7-4-14.6-4-14.6 0 0 43.9 0 64.4-1.1 20.5-1.2 17.5-9.3 17.5-9.3 0 0 71.7-2 78.1-2 6.5 0 5.4-2.5 13-2.8q0.8 0 1.6 0c6.1 0 7.5 1.4 16.4 1.4 9.5 0 11.5-1.7 12.9-2 1.4-0.2 20-0.5 20-0.5zm-845.7-386.3c0.4-0.4 2.8-2.5 7.7-2.5 3.4 0 7.1 1 11.2 2.9q2.1 0.9 4.5 2.1c6.9 3.3 15.5 7.5 22 8.3 1.8 0.3 3.5 0.5 5.2 0.7 6.1 0.7 11.4 1.3 18.1 3.2 3.9 1 11 3.3 14.3 6.6 1.1 1.1 1.6 2.7 1.4 4.2-0.3 1.6-1.3 2.9-2.7 3.6-1.7 0.8-4.8 2.4-7 4.7-5 5-15.6 13.5-29.7 13.5q-1.7 0-3.4-0.2c-10.8-1.1-13.5-7.8-16.1-14.3-1.9-4.5-3.8-9.2-8.6-13.5-12.5-11-16.6-14.2-16.6-14.2l-3.1-2.4zm2.3 2.4c0 0 4.1 3.1 16.8 14.4 12.7 11.2 7.5 25.5 22.9 27q1.5 0.1 3.1 0.1c13.7 0 23.7-9 27.2-12.5 2.6-2.6 6-4.4 7.9-5.3 0.9-0.5 1.2-1.7 0.5-2.4-2-1.9-6.5-4.1-12.9-5.8-8.2-2.3-14.2-2.6-22.8-3.8-8.7-1.1-20-7.2-27.5-10.7-4.2-1.9-7.4-2.5-9.8-2.5-3.8 0-5.4 1.5-5.4 1.5zm143-172.8l-6.1-11.8 11 7.5c3.8 2.6 15 9.5 21.5 10.1 8.8 0.9 12.1 1.2 18.6 4.6 2 1 2.6 1.1 3.1 1.1 0.6 0 1.5-0.2 2.8-0.4 2.1-0.5 5.3-1.2 10.6-1.6 6.1-0.5 11.9-0.8 16.7-0.8 7 0 11.6 0.5 14.1 1.6 3.2 1.4 8.5 8.3 10.6 11.2 2.1 2.9 7.1 10.2 8.2 14.9q0.7 3.2-1 5.1l-2.3 2.5-2.5-2.2c-0.2-0.2-5.5-4.8-16.6-4.8-6.5 0-11.6 0.6-16.4 1.2-4.4 0.5-8.4 1-13.1 1-10.3 0-22.9-5.7-38.6-17.5-15.3-11.6-20.4-21.3-20.6-21.7zm3-1.5c0 0 4.7 9.3 19.7 20.5 14.9 11.3 26.9 16.9 36.5 16.9 9.6 0 16.9-2.3 29.5-2.3 12.7 0 18.9 5.7 18.9 5.7 2.8-3.1-12.7-24.2-16.6-25.9-2.2-0.9-6.8-1.4-12.8-1.4-4.8 0-10.5 0.3-16.5 0.8-8.5 0.7-11.2 2.1-13.6 2.1-1.3 0-2.6-0.4-4.6-1.5-5.9-3.1-8.8-3.4-17.5-4.2-8.7-0.9-23-10.7-23-10.7zm-190.8-45.3c-0.6-1.1-1-3.1 0-4.9 1.8-3.1 6.4-3.5 9.7-3.5 9.3 0 16 5.3 21.4 9.5l0.9 0.8c4.7 3.7 10.5 6.7 16.6 8.7l5.4 1.7-4.1 3.9c-0.5 0.5-5.2 4.8-14.4 4.8-2.7 0-5.5-0.4-8.4-1.2-5.3-1.3-8.7-5.2-12-8.9-3.6-4.1-7-7.9-13-9.3l-1.4-0.4zm2.9-1.6c13 3 15.6 15.8 25.1 18.2 2.8 0.8 5.3 1 7.5 1 8.2 0 12.2-3.8 12.2-3.8-6.2-1.9-12.4-5-17.8-9.3-5.3-4.2-11.5-9.5-20.2-9.5-8.7 0-6.8 3.4-6.8 3.4z"/>
		</g>
		<g id="&lt;Group&gt;">
			<g id="&lt;Group&gt;">
				<g id="&lt;Group&gt;">
					<g id="&lt;Group&gt;">
						<g id="&lt;Group&gt;">
							<path id="&lt;Compound Path&gt;" fill-rule="evenodd" class="s6" d="m611.6 1404c-2.9-0.1-5.8-0.4-8.8-1.1-13.7-3.1-20.2-9.7-23.3-14.9-5.5 5.5-16.1 13.1-32.9 12.9q-1 0-2.1 0c-19.7-1-30.6-10.1-35.2-15.1-6.5 4.3-22.5 13.1-44.4 12.8-9.9-0.1-19.9-2.1-29.7-6-23.1-9.1-33.5-23.5-38.1-33.9-2.7-6.2-3.8-11.8-4.2-15.7-4.1 1-10.4 2.2-17.8 2.1-7.9-0.1-15.4-1.6-22.3-4.5-17.9-7.4-24.3-23.5-26.3-31-2.7 0.4-6.6 0.8-11.1 0.8-9.1-0.1-22.2-2.4-33.1-12.3-15.7-14.3-17.5-31.3-17.5-38.5-2.5-0.8-6.1-2.2-9.8-4.5-8.9-5.5-14.3-13.5-15.5-22.9-1.8-14.2 5.9-19.7 11-23.3 3.7-2.6 4.3-3.3 4.1-4.6-0.4-3-1.7-4.6-3.6-7-3-3.9-6.9-8.8-7-20.3 0-9.8 1.6-16.9 3.1-21.4-12.1-1-37.6-6.4-51.1-33.6-9.4-19.1-6-35.6-1.5-45.9 5-11.7 13.4-20.3 20.4-23.9-2.2-12.4-1-33.1 16-42.4-1-6.8-2.2-23.1 7.9-34.9 8.1-9.6 15.6-12.4 20.2-13.1 0-8.3 1.8-26.9 16-37.5 13.2-9.7 25.4-11.6 30.9-11.8 1.9-5.3 6.7-12.2 15.9-13.6q3.2-0.5 6.1-0.5c4 0.1 6.9 0.9 8.9 1.9 6.7-7.4 27.1-25.7 64.7-25.2 8.4 0.1 17.1 1.1 26.1 3.1 26.8 5.9 47.6 22.7 60.2 48.6 7.1 14.3 9.7 27.7 10.7 33.9 7.3 0.3 22.8 3 31.6 19.6 8.9 16.8 4.1 31.8 1.5 37.8 2.2 2.5 5.6 6.9 8.5 13.4 4.1 9.3 7.8 24.7 2.2 45.6-9.1 33.7-39.1 37.8-49.6 38.2-0.4 3.3-1.6 7.9-5 11.6-3 3.5-7.2 5.6-12.3 6.3 0 8.4-2.7 27-25.6 34.6 2.2 4.4 4.2 11.8 1.9 22.3 6.9 0.9 19.5 4.4 30.1 17.5 9.6 11.9 14.5 25.4 13 35.9-0.8 5.8-3.4 10.5-7.6 13.4-4.6 3.3-6.2 8.1-5.3 11q0.8 2.9 4.4 3.1 1 0.1 1.9 0.1c3 0.1 5.6-0.3 8.1-0.6 2.5-0.4 5-0.7 7.6-0.7 3.5 0.1 6.6 0.7 10 2.1 5.8 2.4 8.3 7 10.5 11 1.8 3.2 3.3 5.9 6.4 7.5 2.9-4.2 9.8-10.8 23-10.6 5.8 0.1 12.3 1.5 19.3 4.2 28.8 11.3 32.2 36.7 32.5 46.5 5.9 1.1 12.2 5 15.7 12.8 3.9-2.2 10-4.5 18.1-4.4q1.5 0 3 0.1c11.6 1 17.9 7.5 20.8 11.7 2.3-0.9 5.6-1.7 9.6-1.7 4.4 0.1 8.6 1.2 12.7 3.5 6.9 3.9 10.2 9.5 13.4 14.9 2.9 4.9 5.7 9.5 11 12.8 12.8 7.8 32.3 8.8 32.5 8.8l1.5 7.5c-0.4 0.1-9.1 4.3-23.6 4.1q-2.6-0.1-5.1-0.3c-7.7-0.6-13.2-3-17.6-4.9-3.4-1.5-6.1-2.7-8.8-2.7-1.7 0-3.5 0.4-5.4 1.5l-0.1 0.1c-6.8 3.6-14.6 7.7-23.9 7.6-7.1-0.1-14.2-2.6-21.6-7.6-4.1 3.6-13.1 9.8-26.2 9.7zm-104.2-232q-3.1-0.1-5.7-1.8c-2.3-1.4-3.8-4.2-4.4-8.3-0.7-4.6-0.3-12.5 2.2-15.5 1.7-2 6.3-6.6 13.3-6.5q1.3 0 2.6 0.2c4.3 0.8 7.9 3.6 9.5 7.4 1.8 4.4 1 9.5-2.4 14.4-4.5 6.6-9.9 10.2-15.1 10.1q0 0 0 0zm13.4-223.6c-9.1-0.1-17.7-12.6-20-19q-0.2-0.6-0.5-1.3c-1.7-4.3-4.1-10.7-2.4-18.8 1.7-7.4 8.2-12.6 15.5-12.5 3.5 0 10.1 1.4 15.3 9.9 6.3 10.2 6.1 24.3 2.5 33-1.9 4.7-4.6 7.6-7.9 8.4q-1.2 0.3-2.5 0.3zm-31.3-46.1c-6.5-0.1-13.3-8.6-14.1-15.2-0.3-2.9 0.5-5.5 2.3-7.6 1.8-1.9 4.3-3 7.1-3 2.2 0 5.5 0.8 9 4.3 3.4 3.4 4.3 10.4 3.2 14.9-1.1 4.4-3.7 5.8-5.2 6.3q-1.1 0.3-2.3 0.3z"/>
							<path id="&lt;Compound Path&gt;" fill-rule="evenodd" class="s1" d="m219.3 1054.5c0 0-8.1-32.2 16-42.4 0 0-5.1-21 6.5-34.7 11.6-13.7 21.2-11.8 21.2-11.8 0 0-2.4-25.7 14.4-38.1 16.7-12.4 31.5-11.1 31.5-11.1 0 0 2-11.8 13.5-13.7 11.6-1.8 15.1 2.8 15.1 2.8 0 0 26.6-37.3 89.2-23.5 62.6 13.8 68.3 82.6 68.3 82.6 0 0 21.2-2.2 31.7 17.5 10.4 19.7 0.1 36.8 0.1 36.8 0 0 22 18.9 11.7 57.2-10.3 38.2-49.5 35.3-49.5 35.3 0 0 1.6 17.9-17.8 18.3 0 0 5 28.4-27.6 35.7 0 0 9.3 8.9 3.1 28.3 0 0 17.8-1.2 32 16.4 14.2 17.6 16.2 36.6 6.3 43.7-10 7-9.7 20.4 1 21.2 10.8 0.7 16.5-3.5 26.4 0.5 9.8 4.1 7.9 16.6 20 19.7 0 0 8.2-19.6 39.3-7.5 33.5 13 29.9 46.3 29.9 46.3 0 0 14.1-0.6 17.6 15.5 0 0 8.1-7.9 22.9-6.6 14.8 1.3 19.5 13 19.5 13 0 0 9.9-6.7 21.9 0 12 6.8 11.9 20 24.4 27.6 13.8 8.4 34.3 9.4 34.3 9.4 0 0-10.1 4.9-26.7 3.5-16.7-1.3-22.2-11.9-34-5.7-11.7 6.3-24.6 13.3-44.1-1.5 0 0-12.4 14.7-33.7 9.9-21.4-4.9-23.1-18.7-23.1-18.7 0 0-10.7 17.8-35.9 16.5-25.2-1.2-34.6-16.4-34.6-16.4 0 0-31 25.2-73.4 8.5-42.5-16.8-40.1-51.2-40.1-51.2 0 0-20.7 8.2-42.3-0.8-21.6-8.9-24.8-32.1-24.8-32.1 0 0-25.9 7.3-44.6-9.7-18.7-17-16.1-38.5-16.1-38.5 0 0-22.8-4.9-25.4-25-2.6-20.1 16.6-18.3 15.1-28-1.5-9.7-10.4-9.7-10.5-26.8-0.2-17 4.9-25 4.9-25 0 0-36.8 2-53.4-31.6-16.6-33.7 7.8-62.1 19.8-65.8zm284.5 112.4c-4.1-2.6-3.1-15.8-1.3-17.9 1.8-2.2 6.2-6.1 12.2-5 6.2 1.1 10.1 7.7 4.6 15.7-5.5 8-11.4 9.9-15.5 7.2zm18.5-222.6c-6.8 1.8-15.4-9.6-17.8-16.2-1.5-4-4.5-10.2-2.7-18 2.1-9.6 15.5-14.5 23.6-1.4 8.1 13.2 3.8 33.9-3.1 35.6zm-31.7-46.1c-4.1 1.3-10.6-6-11.3-11.6-0.7-5.5 5.8-9 11.7-3.1 3.2 3.2 3.7 13.5-0.4 14.7z"/>
						</g>
					</g>
					<path id="&lt;Compound Path&gt;" fill-rule="evenodd" class="s4" d="m693 1389.4c-3.6-1-7.1-1-11.5 1.3-11.7 6.3-24.6 13.3-44.1-1.5 0 0-12.4 14.7-33.7 9.9-21.4-4.9-23.1-18.7-23.1-18.7 0 0-0.5 0.9-1.6 2.3-5.7 3.1-15.3 6.1-25 7-13.1 1.2-24.6 1.1-32.8 0.6q-1.8-1-3.2-2.1 1.4 1.1 3.2 2.1c-8.1-0.4-13-1.1-13-1.1 0 0-35.6 13.3-66.5 1-42.3-17-33.9-61.7-33.9-61.7 0 0-25.3 6.1-46.9-2.9-21.6-8.9-20.2-30-20.2-30 0 0-28.8 5.7-47.5-11.3-18.7-17-13.1-36.9-13.1-36.9 0 0-19.5 2.1-22.1-18-2.7-20.2 15-14.3 13.5-24-1.5-9.7-12.2-20.7-12.3-37.8-0.1-17 5-25 5-25 0 0-37.1 2.1-53.4-31.6-16.1-33.2 17.8-52.3 18.4-52.5 0 0-10.7-22.8 10.3-38.3 0 0-1.4 15.1 11.6 26.7 15.2 13.6 32.5 11.1 32.5 11.1 0 0-6.5 9.8-1.7 16.6 4.8 6.9 14.8 6.3 14.8 6.3 0 0-3.3 13.6 7.3 30.3 7.2 11.5 21.3 17.1 29.5 19.4 2.3 0.7 3 3.7 1.2 5.3-5.6 5.1-13.9 15.7-14.1 34.4-0.5 31.7 26.5 36.2 26.5 36.2 0 0-5.9 24.8 14.8 36.5 20.8 11.7 42.6-0.7 42.6-0.7 2.6 3.8 7.5 5.7 7.5 5.7 0 0-1.1 12.2 10.4 22.2 11.5 10.1 28.2 11.1 28.2 11.1 0 0-1.3 13.5 4 20.4 5.4 6.8 17.2 7.8 17.2 7.8 0 0-4.7 37.5 26.4 45.1 23.4 5.8 39-2.9 45.3-7.5 1.7-1.2 4-0.9 5.1 0.8 3.1 4.3 9.8 11.4 20.7 10.6 15.8-1.1 24.1-14.7 25.7-13.2 1.6 1.6-3.3 15.1 5.7 22.7 9 7.5 17.7 2.8 22.2 2.1 4.5-0.8 4.7 7.6 19.9 9.4 6.8 0.8 13 0.5 17.7-0.2 6.3-0.8 12.7 0.6 18.2 3.8 5.5 3.3 11.5 5.4 14.3 6.3zm-338.7-52.4q2 0.8 4 1.5-2-0.7-4-1.5zm-101.6-184.6c-0.7 1.2-2.4 4.8-3.6 10.9 1.2-6.1 2.9-9.7 3.6-10.9zm175.6 1.8c-1.3-0.6-1.5-2.4-0.3-3.3 5.7-4.2 18.8-14.7 22.2-25.1 4.5-13.4-2.1-23.6-2.1-23.6 7.8-4.1 5.9-12.6 5.9-12.6 0 0 15.8-5.1 19.7-23.8 3.9-18.7-7.7-33.4-7.7-33.4 46.6 16.2 60.8-13.5 60.8-13.5 0 0 22 18.9 11.7 57.2-10.3 38.2-49.5 35.3-49.5 35.3 0 0 1.6 17.9-17.8 18.3 0 0 5 28.4-27.6 35.7-4.2-5.5-11.3-9.3-15.3-11.2zm76.2-226.1c-1.5-4-4.5-10.2-2.7-18 0.2-0.9 0.5-1.7 0.9-2.5-0.4 8.1 8.6 21.5 18.4 19.9 7.6-1.2 7.7-8.3 7.2-12.1 3.8 12.6-0.2 27.5-6 28.9-6.8 1.8-15.4-9.6-17.8-16.2zm-1.2 220c-0.4 1.2-0.6 2.6-0.2 3.8 1 2.9 5.9 6.9 12.6 3.1 5.1-2.9 5.2-5.8 5-7 1.8 2.9 1.8 7-1.4 11.7-5.5 8-11.4 9.9-15.5 7.2-4.1-2.6-3.1-15.8-1.3-17.9q0.3-0.4 0.8-0.9zm-177.2 157.5c1.2-0.2 2.1-0.4 2.7-0.5-0.6 0.1-1.5 0.3-2.7 0.5zm368.5 84.3h-0.1q-0.3-0.1-0.6-0.2c0.4 0.1 0.7 0.2 0.7 0.2zm-173.4 0.4q0 0 0 0 0.1 0.1 0.2 0.2-0.1-0.1-0.2-0.2zm57.4-7.2q0.1-0.2 0.3-0.3-0.2 0.1-0.3 0.3zm-0.3 0.3q0.2-0.1 0.3-0.3-0.1 0.2-0.3 0.3zm-361-328q0 0 0 0-0.6 0.2-1.2 0.5 0.6-0.3 1.2-0.5zm74.9 245.1q1.9 1 3.8 1.9-1.9-0.9-3.8-1.9zm286.7 82.3q0-0.1 0.1-0.1 0 0 0 0-0.1 0-0.1 0.1zm-329.8-219.5q-0.3 1.7-0.5 3.6 0.2-1.9 0.5-3.6zm0 0q0 0 0 0 0 0 0 0zm3.6-10.9q0.2-0.5 0.2-0.5 0 0-0.2 0.5z"/>
				</g>
				<g id="&lt;Group&gt;">
					<g id="&lt;Group&gt;">
						<path id="&lt;Path&gt;" class="s6" d="m493.4 1390c0 0-38.7-4.3-57.3 7.3-11.4 7.3 3.5 33 107.5 62.4 0 0 36.5 10.8 61.3 14.8 36.4 5.8 58.4-3.7 73.6-1.9 10.7 2.4 570.2 146 612.7 156 40.5 11.2 114.1 39 114.1 39 20.4 14.2 45.9 19 66.2 32.9 0.1 0.1 88.7 27.1 158.4 33.4 35.2 3.2 72.3-0.9 88.4 0.2 16.3 1.2 154 27.8 265.4 42.5 111.2 14.4 327.2 2.1 529.1-46.3 214.4-51.3 235.6-86.8 180-133.8-16.5-12.2-150.5-28.6-358-48.6-206.2-19.9-486-43.5-764-66.8-278-23.2-554.3-46.1-753.3-63.1-200.3-17-323.3-28.2-324.1-28z"/>
						<path id="&lt;Path&gt;" class="s6" d="m1539.8 1708.8c-56.9-0.8-100.4-13.5-133.4-39.3-34.6-27.1-56.8-69.3-63.6-83.7-10.5 0.6-27.4 1.5-33.8 1.4-3.9-0.1-17.1-3.6-71.6-18.7-67.1-18.6-168.5-47-257.3-68.5-123.5-29.7-248.5-55.7-275.9-61.4-2.7 6.6-8.6 16.4-20.3 19-10.5 2.3-66 7.4-104.9 6.4-17-0.4-28.5-1.8-35.4-4.3-24.6-9.2-37.5-40.3-40.1-47.2-11-15-15.8-35-17.8-46.6-8.8-0.8-19.5-3.1-23.9-9.1-4.4-5.9-10.6-29.4-14-43.1-5.4-7.5-14-21.3-13.1-30.9 0.4-5.1 3.2-10.1 6.4-15.8 3.8-6.7 8-14.2 7-19.7-1.1-6.2-4.9-19.9-8.7-33.1-6-21.5-8.5-30.7-8.6-35-0.1-2.4 0-5.9 1.4-9-0.8-4.8-1.4-12.5-1.9-24.1-0.6-13.3-0.8-28.5-0.6-34.6 0.4-8.6 2.9-13.7 5.1-16.5 4.9-56.4 16.3-92 21.1-104.7 2-5.3 5.6-9.7 10.2-12.5 42-25.8 113.7-34.6 129.4-36.3 8.5-7.4 46.9-40.9 94-73.3 54.9-38.2 149.9-89.2 187.8-98.9 29.3-7.8 118.7-30.7 238-31.2 37.2-0.1 72.8 0 105.8 0.5 84.2 1.1 155.6 4.1 218.6 9.1 96.7 8.1 195.8 15 331.3 90 119.2 66.3 201 128.3 217.3 140.9 9 0.7 46.7 4.1 173.7 22.4 152 21.9 308.1 61.2 309.4 61.5 116.8 32.3 171.6 80.1 178.2 85.9 36.4 24.2 46.1 63.7 48.5 77.1 26.4 11.1 32.8 19.6 43.9 46.6 11.6 28.2 14.2 75 8.2 92.1-4.5 12.8-14.5 21.3-20.7 25.6 1.7 33-2.6 79.6-3.6 90.6 2.5 3.8 8.6 12.8 18.8 25.3 14.8 18.2 20.4 32.7 4.9 53.5-13.2 17.7-82.9 66-208.4 93.1-124.1 26.8-230.7 41.8-343.1 49.6-42 2.9-86.7 4.2-132.8 3.7-61.7-0.6-116-4.1-156.4-7-190.5-13.9-199.8-18.2-203.5-20-5.1-2.4-8.7-7.6-10.6-15.5-11.2 13.9-27.1 24.7-47.4 32-30.7 11.2-67.1 13.1-91.9 13.6-5.4 0.2-10.6 0.2-15.7 0.1z"/>
						<path id="&lt;Path&gt;" class="s7" d="m598.6 949.3c-0.1 0-83.6 7.8-128.7 35.5-3.1 1.9-5.5 4.8-6.9 8.4-4.8 12.8-16.2 48.5-20.9 105.5 0 0-4.4 2.2-4.8 13.1-0.5 11 0.8 58.9 3.4 60.7 0 0-2.6-0.7-2.4 6.4 0.2 7 14.8 53 17.2 66.9 2.5 13.9-12.6 29.3-13.3 37.7-0.8 8.5 12.5 26.5 12.5 26.5 0 0 8.8 36.1 13.1 41.8 4.2 5.8 24.5 6.4 24.5 6.4 0 0 3.1 30.9 17.9 50.2 0 0 11.9 34.7 35.9 43.6 23.7 8.9 122.2 0.7 135.9-2.4 13.6-3 16.7-20.4 16.7-20.4-0.2 0 140.5 28.6 283.1 62.9 142.1 34.4 318.6 86.9 327.1 87 8.7 0.1 39-1.7 39.1-1.7-0.1 0 23.1 54.4 63.5 86 40.5 31.8 92.3 38.6 143.7 37.6 59.1-1.4 129.9-10.1 147.3-70.5 0 0-4.9 35.7 6.6 41.1 10 4.7 127 13.9 200.7 19.2 73.7 5.4 176.7 11 288.2 3.3 111.3-7.8 217.1-22.7 341.8-49.7 124.7-26.9 192.1-74.6 203.7-90.1 11.7-15.6 9.8-25.5-4.6-43.3-14.5-17.7-21-28.4-21-28.4 0.1 0 6.5-60.3 3.7-97.2 0 0 16-8.5 21.5-24 5.5-15.6 2.8-59.6-8-86-10.9-26.4-16.1-32.9-43.9-44 0 0-4.6-49.2-46.2-76.4-0.1 0-54.3-51.1-175.3-84.5 0.3 0-154.7-39.2-308.6-61.4-153.7-22.2-175.8-22.4-175.7-22.5 0.2 0.1-85.7-68.2-218.4-142.1-132.4-73.5-229.5-81.1-328.2-89.3-98.4-7.8-211-10-324-9.4-112.8 0.4-198.2 21.1-235.8 31-37.7 9.7-131.8 60.8-185.2 98-53.7 37-95.2 74.5-95.2 74.5z"/>
						<path id="&lt;Path&gt;" class="s8" d="m974.2 944.6c0 0-0.7 19.2 21.9 25.2 24.8 6.5 67.3 11 92.1 8.9 24.7-2.2 42.4-5.3 46.9-4.5 6.1 1.1 10.7 6.1 10.9 8 0.1 1.9-20.1 8.8-52.1 13.1 0 0-15 2.3-43.6 0.6-28.6-1.7-59-3.1-65.9-7.6-6.9-4.6-15.8-27.7-10.2-43.7z"/>
						<path id="&lt;Path&gt;" class="s8" d="m1189.3 1232.3c0.3 26.8 1.7 63.2 5.7 86.3 0 0-4.5-20.3-24.5-26-31.2-8.5-354.9-61-378.2-63.3-25.1-2.5-34.5 6.3-36.4 29.6-0.2 0-20.6-104.9-21.9-127.9 141.7 23.5 283.1 44.6 420.9 62.4 19.5 2.5 34.1 19 34.4 38.9z"/>
						<path id="&lt;Path&gt;" class="s8" d="m657.7 1247.8c0-0.1 3.1 25.9 5.9 60.4 0 0 3.4-35.1 22.7-39.2 19.3-4 51.5 7.6 58.4-7.8q-43.8-6.8-87-13.4z"/>
						<path id="&lt;Path&gt;" class="s9" d="m478.5 1266.2q-11.4-8.5-22.8-16.9c-0.2 12.9-12.8 26.5-13.5 34.2-0.8 8.5 12.5 26.5 12.5 26.5 0 0 8.8 36.1 13.1 41.8 1.7 2.4 6.2 3.9 10.8 4.8q-0.1-45.2-0.1-90.4z"/>
						<path id="&lt;Path&gt;" class="s9" d="m2469.9 1092c-103.4-38.1-240-66.6-240-66.6 0 0 103 20.2 189.6 44 90.3 24.8 120.2 47.7 152.3 69.8 32.1 22.1 55.2 50.4 55.2 50.4q2-5.7 4.1-11.4c-0.1 0-25.5-45.7-83.7-73.6-45.1-21.7-105.7-39.8-130.5-46.7-58.2-13.4-157.5-34.6-255.8-48.8-153.7-22.2-175.8-22.4-175.7-22.5 0 0-109.7-7.6-247.2-5.4-137.5 2.1-458.3 16.4-457.9 16.5 0 0 14.2 27.9-66.8 24.5 0 0 108.3 4.2 232.2 19.8 147.6 18.4 315.3 52.9 330.7 55.9 0 0-109.6-30.8-216.1-50.9-76.3-14.5-234.7-25.3-279.1-33.5 3.5-2.6-0.4-15.5-0.4-15.5-0.1 0 173.3 12.9 331 44.6 157.6 31.8 219.6 55.7 257.8 67.6 59.3 18.3 143.4 64.4 143.3 64.4 0 0 26.2 2.3 83.1 12.7 56.9 10.3 71.9 10.6 112.7 14.8 40.7 4.3 83.2 7.1 83.2 7.1 0 0 12.7 6 16.2 6.1 3.6 0 38.7 15.8 38.7 15.8-0.1 0-69.7-54-215.4-109-81.7-30.7-189.5-61.9-316.1-83-0.1 0 78.4 8.3 178.8 31.5 69.3 16 163.5 47.6 223.3 74.3 97 43.2 146.9 85 147 85-0.1 0 22.6 1.8 91.4-3.7 68.9-5.4 149.7-16.2 149.7-16.2q13-3.4 26-6.7c0 0-57.9-73.3-161.6-111.3z"/>
						<path id="&lt;Path&gt;" class="s7" d="m1802 1089.5c80.5 22.4 161 44.9 240.8 67.4 22.9 6.4 46.1 11.1 69.5 14 10 1.2 21.9 2.6 35.6 4.1 47.5 5.1 122.9 5.6 122.8 5.6q42.2 26.1 83.8 52.1c0 0-37.3-13.9-53.5-18.3-30.3-8-50.8-9.2-65.2-10.4-22.1-1.8-72.1-5.5-106.7-10.4-34.5-4.9-73.5-17.1-73.5-17.1q-31.9-1.1-64-2.2c-62.9-28.3-126.3-56.6-189.6-84.8z"/>
						<path id="&lt;Path&gt;" class="s7" d="m2284.9 1180.1c0.9-0.1 228.3-9.9 243-9.5 15.8 0.3 21.9 9 21.9 9q-29.8 14.5-59.9 29.2c0.1-0.1 62.1-22.7 70.8-22.5 9 0.1 44.8 20.8 44.8 20.8-79.6 8.2-160.8 16.5-243.3 24.9q-38.4-25.9-77.3-51.9z"/>
						<path id="&lt;Path&gt;" class="s9" d="m1438.8 755.2c-98.4-7.8-211-10-324-9.4-53.5 0.2-100.8 4.9-139.8 10.9 26.7-1.3 95.1-4 124.7 2.3 37.1 7.8 46.2 29.3 67.6 65.1 20.8 34.9 83.4 177.2 87.5 177.9 3.6 0 16.8 1.6 25.5-4.3 10.7-9.5-49.6-213.1-48.7-211.2-0.2-0.1 348.8 6.5 360.4 6.3 4.6-0.2 26.1-1.6 49.8-3.3-73.8-23.7-138.2-29-203-34.3z"/>
						<path id="&lt;Path&gt;" class="s9" d="m1308.9 1579.1c0.1-0.2-17.8-12.8-18.2-94-0.3-81.5 4.5-113.2 4.4-113.1q-45.2-11.6-90.1-23.3c-0.1 0 122.2 17.2 125.9 18 3.7 0.8-20.5 3.3-20.5 9.9-0.4 7.4-1.9 203.6-1.5 202.5z"/>
						<path id="&lt;Path&gt;" class="s8" d="m1201 1343.2c0 0-2.1-11.4-0.7-13.9 1.4-2.6 106.9 18 107 18q6.9 8.7 13.9 17.3c-0.1 0-97.4-19.6-107.1-21.2-9.8-1.6-13.1-0.2-13.1-0.2z"/>
						<path id="&lt;Path&gt;" class="s9" d="m535 1076.7c21.5-5.8 34.7-49.3 65.8-48.1 8.2 0.2 125.4 12.9 125.7 13 19.4-39.5 57.8-75 57.9-75-31.9-16.7-63.6-33.3-95.3-49.8q5.7-6.3 11.3-12.7c53.5-34.6 107.9-68.8 162.8-102.3-136.3 43-229.5 150.5-234 157.2-4.8 6.6 6.4 3.1 4 4.9-2.4 1.9-41.1 14.5-51.8 23-10.7 8.5-19.5 12.3-61.1 11.2-34.1-0.8-54.2-6.2-56.3-6.9-0.4 0.7-0.7 1.3-1 2-4.8 12.8-16.2 48.4-20.9 105.5 0 0-4.4 2.2-4.8 13.1-0.3 5-0.1 17.6 0.4 30.1 0.8-9.8 2.7-31.8 6.4-33.2 4.5-1.7 11.6 7.1 17.8 5.5 2.4-0.6 3.6-11.5 4.2-19 0.3-3.4 3.6-5.6 6.6-4.4q0 0 0 0c10 3.6 21.7 6.3 21.7 6.3q2.2-12.1 4.5-24.2c0 0 27.6 6.1 36.1 3.8z"/>
						<path id="&lt;Path&gt;" class="s9" d="m734.8 1041.2c-2-0.3 364.6 53.9 377.4 52.9 5.1-0.6-81.4-16-133.6-32.2-76.1-23.7-80.6-33.7-80.7-33.7 159.5 19.4 322.9 39.4 487.9 59.9-1.9-0.5-449.2-73.8-453.2-76.8-6.2-3.7-17.4-13.3-15.8-15.4 1.3-2.1 133.3 0 133.5 0-89.6-9.9-178.3-19.7-265.9-29.3-0.1 0-29.5 39.7-35.3 46.8-5.8 7.2-14.3 27.8-14.3 27.8z"/>
						<path id="&lt;Path&gt;" class="s9" d="m1770.1 1120.4c-128.7-24.5-151.2-39.3-194.8-11.5-31.4 20-39.3 24.4-51.5 30.8-22.5-0.3-73.4-0.2-106.5 7.1 0 0 18-0.5 42.7-0.8 40.3-0.4 80.3 8.3 116.6 26.1 18.7 9.2 37.6 20.9 51.2 34.9 39.2 40.2 62.3 39.2 83.3 43 30.8 5.6 158.2 16.8 166.2 14 8.1-2.8 25.1-16.6 25.1-16.6 28.2-24.3 56.4-48.5 84.4-72.7 0 0-88-29.9-216.7-54.3z"/>
						<path id="&lt;Path&gt;" class="s1" d="m2738.9 1511c-14.5-17.7-21-28.4-21-28.4 0.1 0 6.5-60.3 3.7-97.2 0 0 16-8.5 21.5-24 5.5-15.6 2.8-59.6-8-86-10.9-26.4-16.1-32.9-43.9-44 0 0-4.6-49.2-46.2-76.4 0 0-6.5-6.1-20-15.5 5.4 5.4 15 17.4 13.2 26.4-2.4 12.8-12.9 12.2-13.6 17.9-0.3 2.2 0.4 5.4 1.3 8.6 1.5 5.6-1.9 11.4-7.4 12.2-17.2 2.6-53.7 7.9-102.2 13.2-41 4.5-92.3 6.5-128.1 9.3-43.4 3.5-71.6-13.4-92.4-20.7-16.9-6-47.3-6.6-95.2-9.5-47.9-2.9-87.9-11.5-127.4-19.4-36.5-7.4-81.6-3.2-81.6-3.2 0 0-36.4-0.1-69.6 6.4-33.2 6.4-75.8 21.2-80 34.4-4.1 13.1 16.6 22.2 43.1 35.8 26.5 13.5 20.7 15.7 20.7 15.7 0 0-23.6 15.1-28.8 15.7-5.1 0.7-59.1-1.5-139.1-9.9-79.9-8.4-84.3-11.9-84.3-11.9 0 0-1.1 5.4 7.5 23.2 8.6 17.7 40.5 84.4 46 155.2 5.6 71 1.1 156.1-4.6 191.6 0 0-0.2 1.7-0.5 4.5-0.8 9.8-1.8 32.4 7.1 36.6 10 4.7 127 13.9 200.7 19.2 73.7 5.4 176.7 11 288.2 3.3 111.3-7.8 217.1-22.7 341.8-49.7 124.7-26.9 192.1-74.6 203.7-90.1 11.7-15.6 9.8-25.5-4.6-43.3z"/>
						<path id="&lt;Path&gt;" class="s10" d="m1911.6 1223.9c7.4-37.5 75.2-49.2 75.2-49.2q-0.4-0.2-0.9-0.4c-11.4 0.3-38.6 1.4-63.9 6.4-33.2 6.4-75.8 21.2-80 34.4-4.1 13.1 16.6 22.2 43.1 35.8 26.5 13.5 20.7 15.7 20.7 15.7 0 0 15.9 8.1 18.4 9 18.6 6.9 48 10.2 48 10.2-30.1-10.7-67.8-25.4-60.6-61.9z"/>
						<path id="&lt;Path&gt;" class="s10" d="m2012.7 1209.7c0 0 14.4 12.9 12.2 33.3-2.1 20.5-12.9 28.1-12.9 28.1 0 0-1.6 9.3 12.5 13.9 14.1 4.5 64.3 6.3 64.3 6.3 0 0-13.5-12.2-13.2-40 0.3-27.8 6.8-30.6 6.8-30.6 0.1 0-71.4-18.9-69.7-11z"/>
						<path id="&lt;Path&gt;" class="s6" d="m1929.9 1238.8c0 0-5.5 7 10 13.6 15.4 6.5 25.7 11.8 25.7 11.8 0 0 25.2 3.2 26.1 5.2 0.9 2 8.6 6.5 20.3 1.7 0 0 2.8 9.4 15.8 10.5 13 1.1 18.4 0.2 23.2 1.8 4.8 1.5 1.8 3.9 16.3 4.1 14.5 0.2 24 3.7 24 7.6 0 3.9-97.9-1.2-134.6-22.7-36.6-21.5-36.4-24.1-33.9-28 2.5-3.9 7.1-5.6 7.1-5.6z"/>
						<path id="&lt;Path&gt;" class="s10" d="m2314.2 1459.3q42.5-2.5 84.6-5.1-46.4 15.1-93.4 30.2 2.4-10.9 4.8-21.8 2-1.6 4-3.3z"/>
						<path id="&lt;Path&gt;" class="s6" d="m1216.8 1011.2c-0.2-0.3-48.1-117.2-76-169.3-28.3-52.5-38.4-74.3-83.6-78.5-45.2-4.2-178 19.7-187.8 24.7-9.8 5-6.2 13.7-6.2 13.7 0.1 0-49.9 17.4-101.1 51.1-51.2 33.8-69.5 50.7-75.1 70.9-5.6 20.3-4 24.7 1.5 28.4 9.4 6.5 209.1 28.7 295.9 36.1 0 0-14.4-16.8-10.2-43.7 4.2-26.9 22-33.4 59.2-31.6 40.8 2 69.4 3.8 77.3 8.1 7.9 4.3 27.1 32.3 27.2 32.3-0.1 0 6.2-31.1 8.2-33.4 0.6-0.7 1.9-1.8 3.3-2.9 3.8-3.1 9.4-1.9 11.2 2.4 9.8 23.1 37.9 88.5 40.3 90.6 2.8 2.4 15.9 1.1 15.9 1.1z"/>
						<path id="&lt;Path&gt;" class="s10" d="m1984.2 1173.9c0 0 4.4 9.9 37.3 15.9 33 6 97.5 19 118.6 23.7 21.2 4.7 67.1 7.5 106.2 9.6 39.1 2 46.5 1.7 55 4.8 8.5 3 42.3 20.3 41.3 20-0.9-0.2-37-24.3-40.9-27.3-3.9-2.9-3.1-5.1-15.9-5.7-12.7-0.5-87.4-6.7-104.7-8.1-17.2-1.3-51.2-4.4-86.2-13-34.9-8.5-77.3-15.7-87.1-16.6-9.8-0.9-23.6-3.3-23.6-3.3z"/>
						<path id="&lt;Compound Path&gt;" fill-rule="evenodd" class="s10" d="m2380.5 1285.2c-0.2 1.9-5 7.6-7.6 8.8-2.4 1.1-113.6 17-157.4 14.3-43.4-2.7-123.7-15.4-123.7-15.4 0 0 21.2-6.8 14.1-10.5-0.5-0.3-10.3-1.1-5.3-19.8 0 0-14.6 1.2-15.2-15.3-0.5-16.6 6-23.6 17.6-22.4 11.5 1.1 12.9 9.6 12.9 9.6 0 0 10.3-1.3 28 2.9 17.7 4.1 35.7 16.5 41.4 21.4 5.6 5 12.9 15.5 12.9 15.5 0 0 37.6 0.8 41.6 1.5 4 0.8 8.7 5.5 11.1 6.2 2.4 0.8 48.7 3.6 52 2.2 3.3-1.4-1.9-19.4-6.3-21.2-4.5-1.7-14.2-3.3-14.2-3.3 0 0 17 0.5 23.1 0.8 6.2 0.3 9.7 3 22.8 4.4 13.2 1.4 24.8 1.8 27.3 0.7 2.4-1-3.1-10.1-3.1-10.1 0 0 13.6 12.1 21.5 19.1 8 7 6.8 8.6 6.5 10.6zm-28-29.7q0 0 0 0zm-208.4-10.1c-0.1 0-8.2 0.6-26.2-1.8 0 0 2 17.3-7.5 29.8 0 0 2.3 3.5 10.7 1.6 0 0 1.6 4.9-0.1 9.5 0 0 10 4.5 17-0.7 7.1-5.3 8.8-26 6.1-38.4z"/>
						<path id="&lt;Path&gt;" class="s6" d="m2314.2 1459.3c0 0.1-6.5 21.6-8.8 25.1-2.2 3.6-26.7 32.8-42.3 61.2-15.6 28.4-14.5 34.7-34.6 37.4-20 2.7-100.9 9.2-129.8-3.8-28.7-12.9-46-44.3-37.5-79.4 8.5-35.2 48.9-36.3 88.3-36 39.6 0.4 154.2-3.1 164.7-4.5z"/>
						<path id="&lt;Path&gt;" class="s6" d="m1971.7 1174.9c0 0 45.2-1.7 94.3 9.3 49 10.9 82.5 18.7 125.5 20.8 42.9 2.1 91.7 5.3 105.3 9.9 6.5 2.1 16.8 7.7 25.9 13 12.7 7.4 27.2 10.8 41.7 9.9 49.8-3.3 164-11.4 211.3-19.5 61.3-10.4 57.8-9.5 57.9-9.5q2 4.5 4 9.1c0.1 0-56.8 0-61.4 2.8-4.6 2.8-9.8 20.9-14.4 24.2-4.1 3.2-147 27.6-172.2 26.4 0 0-22.1-22.5-24.9-23-2.8-0.6-19.7 0.2-22.1-0.4-2.3-0.5-36.4-18.9-49.2-23.4-13.9-5-57.6-7.6-106.3-11.8-48.6-4.1-80.3-11.9-101.5-16.1-21.1-4.2-85.2-16.8-113.9-21.7z"/>
						<path id="&lt;Path&gt;" class="s6" d="m1867.3 1196.6c0 0-18.8 10.2-21.8 16.6-3 6.3-4 10.7 22.6 26.2 26.7 15.5 83.7 45.6 119.4 48.5 36.1 2.9 195.4 9.3 255.3 9.1 60.4-0.2 126.4-2.8 130.2-4.7 3.7-1.9 7.5-7.1 7.5-7.1 0 0-5.3 10.5-10.4 12.9-5.2 2.3-27.7 3-57 8.5-29.3 5.4-87.6 14.9-154.6 12.7-67-2.3-110.4-4.3-160.1-16.1-49.7-11.9-73.4-20.5-86.4-27.5-13.1-7-13-13.9-13-13.9 0 0-34.7-16.6-49.4-26.6-14-9.5-12.7-22.1-3.6-27.9 12-7.7 21.3-10.7 21.3-10.7z"/>
						<path id="&lt;Path&gt;" class="s6" d="m1411.5 1663.4c40.5 31.8 92.3 38.6 143.7 37.6 59.1-1.4 129.9-10.1 147.3-70.5 5.7-35.5 10.2-120.6 4.6-191.6-5.5-70.8-37.4-137.5-46-155.2-8.6-17.8-7.5-23.2-7.5-23.2-3.4-1.5-73.1-74-146.3-88.1-73.2-14.2-136.6 10.9-168.1 55.1-31.4 44.1-40.8 117.8-36.9 124.6 3.8 6.9 18.9 12.5 18.9 12.5 0 0-7.8 5.2-12.7 8.1-4.8 2.7-7.5 20-10.4 94.8-2.7 74.5 10.9 111.5 10.8 111.6 8.7 0.1 39-1.7 39.1-1.7-0.1 0 23.1 54.4 63.5 86z"/>
						<path id="&lt;Path&gt;" class="s6" d="m654.4 1399.5c0-8.6 1.4-52.6 0.9-74.9-0.6-22.3-2.2-34.9-4.4-52.9-2.2-18-1.7-29.1-1.7-29.1-9.6-2.7-33.5-64.6-42.9-84.4-9.4-19.8-45.2-77.1-80.2-59.1-35 18-41.4 76.3-42.3 87.6-0.8 11.4 2.2 10 2.2 10 0 0 0.9 6.8-6.2 35.5-7 28.7-12.5 75.6-13.1 99.4-0.4 13.5 2.3 19.9 4.6 22.8 7.3 3.4 21 3.8 21 3.8 0 0 3.1 30.9 17.9 50.2 0 0 11.9 34.7 35.9 43.6 23.7 8.9 122.2 0.7 135.9-2.4 13.6-3 16.7-20.4 16.7-20.4 0 0-23.3-4.9-35-9.1-11.7-4.2-9.3-12-9.3-20.6z"/>
						<path id="&lt;Path&gt;" class="s8" d="m526.1 1099.1c35-18 70.8 39.3 80.2 59.1 9.4 19.8 33.3 81.7 42.9 84.4 0 0 0 1.6 0 4.5q46.5 5.4 93.6 10.8c-14.8-45.7-22.3-126.8-22.2-126.7q-59.2-8.9-117.3-17.6c-9.4-1.4-18.2-5.3-25.7-11.2-10.7-8.4-28.1-19.4-42.5-16-19.9 4.6-28.7 27.3-30.5 32.8 5.6-8.3 12.6-15.5 21.5-20.1z"/>
						<path id="&lt;Path&gt;" class="s6" d="m2652.9 1250.7c0 0 20.8-0.4 35.2-10.8 0 0 0.9 10.7-0.5 12.8-1.3 2.1-14.8 13.3-22.2 12.1-7.3-1.1-12.5-14.1-12.5-14.1z"/>
						<path id="&lt;Path&gt;" class="s6" d="m2421.9 1450.5c35.6-3.9 168.7-19.6 236.5-40.6 0 0-4.9 41.8-13.3 67.3-8.3 25.6-7.1 30.8-16.2 31.3-9.1 0.4-20.8-2-20.8-2-0.1 0 3.6 3.8-47.6 17.5-50.8 13.6-205.9 50.8-206.2 50.8 0 0 14.9-66.5 53.1-116.2 3.6-4.6 8.9-7.5 14.5-8.1z"/>
						<path id="&lt;Path&gt;" class="s10" d="m2658.4 1409.9c0 0-4.9 41.8-13.3 67.3-8.3 25.6-7.1 30.8-16.2 31.3-9.1 0.4-20.8-2-20.8-2-0.1 0 3.6 3.8-47.6 17.5-50.8 13.6-205.9 50.8-206.2 50.8 0 0-5.7 19-1.5 23.3 4.2 4.2 49.4 0.7 123.4-14.6 74.2-15.2 174.4-49.5 193-58.4 18.9-8.8 16.9-12.7 19.1-35.4 2.2-22.7 5.3-79.3 9.5-93.5 0 0-19.1 7.4-39.4 13.7z"/>
						<path id="&lt;Path&gt;" class="s6" d="m2699.5 1395.5c0 0.1-0.5 86.6 0.7 90.9 1.3 4.2 9.9-1.9 9.9-1.9 0 0-4.5 1.4-5.3-4.7-0.7-6.2 0.6-81 2.3-83.5 1.7-2.5 12.7-9.8 12.7-9.8q-10.1 4.5-20.3 9z"/>
						<path id="&lt;Path&gt;" class="s6" d="m483.6 1021c0 0 1.1-8 4-8.7 2.9-0.7 23.3 2.9 24.1 5.2 0.9 2.4-4.2 17.7-9.2 44.7-4.7 26-4.8 36.3-7 37.3-2.3 0.9-22.8-8.7-22.8-8.7 0 0 18.4 4.8 20 4.1 1.5-0.7 4.4-29.3 10.3-54.7 4.3-18.7 5.4-20.8 0.6-22.1-5.4-1.5-13.9-2.4-15.5-2.5-2.8-0.2-4.5 5.4-4.5 5.4z"/>
						<path id="&lt;Path&gt;" class="s6" d="m2641.7 1157c0 0 7 10.9 2.2 17.2-4.8 6.3-13.6 10.1-12.3 16.6 0 0 3.4-2.5 9.9-8.1 6.4-5.6 13.2-14.7 0.2-25.7z"/>
						<path id="&lt;Path&gt;" class="s6" d="m2635.7 1193.7c0 0 14.1 37.4 17.4 41 3.3 3.6 18.8-9 19.6-14.7 0.7-5.7-0.1-12.9-0.1-12.9 0 0 0.9 14.5-6.2 11.7-5-1.9-14.4-36.6-15-38.7-0.7-2.2-3.4 6.8-15.7 13.6z"/>
						<path id="&lt;Path&gt;" class="s6" d="m1767 844.5c-46-25.7-87.7-43.1-126.7-55.5-11.6-1.5-95.4-11.8-229.1-17.8-144.2-6.5-244.4-2.7-253.8 6.6-8.4 8.4 36.1 54.2 69.7 123.1 25.7 53 53.2 96.8 53.2 96.8-0.4-0.1 320.4-14.4 457.9-16.5 137.5-2.2 247.2 5.4 247.2 5.4 0.2 0.1-85.7-68.2-218.4-142.1z"/>
						<path id="&lt;Path&gt;" class="s9" d="m1111.2 929.4c-3.5-3.2-7.9-5.1-12.7-5.6-14.7-1.5-58.1-5.7-78.4-4.7-31.2 1.6-35.8 15.7-37.1 27.3-1.3 11.7 16.2 19.5 24 18.7 6.1-0.7 4.1-11.4 4.1-11.4 0 0 15.9 11.1 37.3 12.7 28.9 2.2 85.8 6 86.7 2.5 0.9-3.6 2.2-9.2 2.2-9.2 0 0-15.1-20.6-26.1-30.3z"/>
						<path id="&lt;Path&gt;" class="s9" d="m1093.9 995.3c0 0 49.3-9.6 51.9-14.3 2.6-4.8 2.9-13.3 2.9-13.3 0 0 13.6-1.8 15.8 1.6 2.3 3.3-1.7 30.9-1.7 30.9q-34.5-2.5-68.9-4.9z"/>
						<path id="&lt;Path&gt;" class="s9" d="m1158 923.8c0-0.1 4.5 44.2 6.5 47.8 2 3.6 14.6 23 15.6 24.4 1.1 1.5-3.7 4.7-2 6.8 1.7 2.2 17.3 10.6 19.1 9.9 1.9-0.7 3.7-2.6 3.7-2.6q-21.7-43.6-42.9-86.3z"/>
						<path id="&lt;Path&gt;" class="s9" d="m734.8 1041.2c0 0-6.7 34.2-5 73.5 3.7 83.4 25 142.5 24.9 142.5-0.1 0-17.5-101.1-18.1-119.4-0.9-20.2 0.4-78.6 7.2-96.6q-4.5 0-9 0z"/>
						<path id="&lt;Path&gt;" class="s9" d="m1196.5 1349.1c-148.6-28.2-295.2-56.3-437.4-83.9 0 0 6.7 46.1 48 91.1 126.8 27.6 256.8 55.4 387.9 83 0 0-2.4 8.1-16.4 7.4-15.4-0.6-367.8-76.4-374.7-80.8-8.9-4.5-46.7-49.9-54.8-103.9 0 0-0.4-3.7 6.8-3.1 6.6 0.5 432.5 82.6 436.7 83.8q2 3.2 3.9 6.4z"/>
						<path id="&lt;Path&gt;" class="s8" d="m1196.7 1349.6q-0.2-0.3-0.5-0.6c-148.4-28.1-295-56.2-437.1-83.8 0 0 6.7 46.1 48 91.1 126.8 27.6 256.8 55.4 387.9 83 3.7-15.8 1.7-89.7 1.7-89.7z"/>
						<path id="&lt;Path&gt;" class="s6" d="m777.5 1047.6c0 0-2.3 16.4 3.8 19.7 6.2 3.3 31.4 4.9 33.7 0.6 2.2-4.3 1.2-14.4 1.2-14.4q-19.4-3-38.7-5.9z"/>
						<path id="&lt;Path&gt;" class="s9" d="m651.9 1247.3c-0.2 0 90.9 15.3 92.8 13.9 1.8-1.4 1.6-5.1 1.6-5.1 0 0.1-12.3-27.9-19.3-88.5-7-60.6-1-115.9 2.2-124.2 10.6-27.8 24-43.8 24-43.8 0 0-4.7 2.8-9.7 7.4-5.1 4.6-18.2 27.4-19.8 33.5-1.6 6-7.2 36.4-6.8 75.2 0.2 38.7 14.5 118.6 22.3 140.4-0.1-0.1-86.4-12-87.3-8.8z"/>
						<path id="&lt;Path&gt;" class="s11" d="m1443.1 837.8c-0.2-0.7 49.9 118.2 54.4 120.7 0-0.1 279.2 0.4 362.1 5.6 0-0.1-93.3-79.7-177.4-113.5-84.1-34.1-185.8-29.5-185.8-29.6 0 0 0.8 15.9 0.2 19.1-1.2 5.8-8.8 4-18.8 2.5-10-1.5-34.7-4.8-34.7-4.8z"/>
						<path id="&lt;Path&gt;" class="s11" d="m1387.6 844.3c0 0 21.1 33.2 35.3 64.9 0 0-73.6-3.6-97.3-4.5 0-0.1 33.3-40.2 62-60.4z"/>
						<path id="&lt;Path&gt;" class="s11" d="m1190.5 818.2q13.3 23.3 26.8 47 23.9-19.5 47.8-38.7c0 0-36.9-5.9-74.6-8.3z"/>
						<path id="&lt;Path&gt;" class="s11" d="m1144.7 900.8c-8.5-33.5-47-86.8-46.9-86.7 0 0-30.5-17.5-137.3-12.6-57 2.6-80.6 10.5-80.6 10.5-37.3 53.9-62.6 140.3-62.6 140.4q73.9 7.5 148.7 15.1c0 0-2.6-21.1 2.7-34.3 10.5-26.1 31.5-29.2 67.2-27.5 25 1.2 46.2 2.5 59.5 4.2 18.3-6.9 49.3-9.1 49.3-9.1z"/>
						<path id="&lt;Compound Path&gt;" fill-rule="evenodd" class="s12" d="m1605.8 1461.8c-5.5 126-72.1 199.7-145 190.3-72.8-9.2-132.9-111.2-128.2-231.4 4.8-120.1 69.2-207 143.6-196.8 74.4 9.7 134.5 118.3 129.6 237.9zm-66.4-85.8c17.4 17.3 13.8 34.7 15.2 36.7 1.5 1.9 17.1 5.6 17.1 5.6 0 0-10-26.9-12.3-34.3-2.4-7.3 5.5-47.7 8.9-49.2 3.5-1.4 7.3 5 7.3 5-5.2-16.7-17.7-33-17.7-33 0 0-12.3 4.7-14.8 10.1-2.6 5.3-9.6 53.2-3.7 59.1zm-77.4-81.3c9 25.6 30.2 57.7 30.2 57.7 0-0.1 17.7-49.7 23.8-61.9 6-12.1 6.6-20.5 6.6-20.5 0 0-13.7-5.5-40.6-5.9-26.9-0.3-29 5-20 30.6zm30.2 57.7q0 0 0 0 0 0 0 0zm2.5 126.8c21.2-6.2 19.3-39.9 19.3-39.9 0 0-1.2 17-7.5 22.4-6.2 5.3-8.4 3.5-13.5 4.5-5.2 1-4.8 5.7-4.8 5.7-12.8-1.6-20-21.3-20-21.3 0 0 4.3 28.1 20.5 29.3-1.6 0.7-3.1 1.6-4.3 2.6-2.9 2.5-7.3 7.3-7.7 11.2-0.4 4 3.4 4.9 8.9 1 7.7-5.3 11.8-12.4 9.1-15.5zm-26.8-38.7c-0.6-12.8 7.9-19.6 9.3-13.4 1.4 6.2 5.4 10.3 5.4 10.3 0 0 1.7-30.5 13-26.7 11.4 3.8 15.6 21.6 15.6 21.6 0 0-3.5-21.5-11.5-27.4-8-6-19.3-6.1-27.2 8.7-7.8 14.8-4.6 26.8-4.6 26.9zm14.7-3.1q0 0 0 0 0 0 0 0zm-1.5-48.8c0.4 2.4 8.2 5.7 8.2 5.7 0 0 0.8-4.9-1.6-7.1-2.4-2.2-7.1-1.1-6.6 1.4zm16.3 3.8c1.7 2.7 9.1 16.7 9.1 16.7 0.8-3.9-2-18.3-5.1-20.3-3.2-2-5.7 0.9-4 3.6zm-40.9 8.5c3.7 4.6 10.5 7 14.9 7.7 3.3 0.5 4.4-1.3 4-4.6-0.6-4.1-2.5-10.4-9.2-14.2-10.7-6-15.2 3.9-9.7 11.1zm-1.1 25.4c5.6 0.9 10.7-0.5 7.3-4.5-2.2-2.5-8.5-6.1-12.4-3.3-3.9 2.9-0.6 7 5.1 7.8zm-71.3-69.1c0 0 1.5 1 31.6 14.6 30.2 13.6 33.7 8.8 29.9-2.5-3.9-11.2-20.4-67.7-20.4-67.7-13.8 14-25.9 49-25.9 50.5 0 1.4-15.2 5.1-15.2 5.1zm8.2 124.2c0 0 30.7-24.1 36.1-30.8 5.4-6.6 5-17.3-3.3-22.8-8.2-5.4-28.7-15.4-38.4-24.3 0 0-2.7 48.5 5.6 77.9zm52.9 9.5c-2.4-0.5-34 15.8-35 18.1-1 2.4 0 8.6-1.5 9.1-1.4 0.4-15 7.9-15.5 11.2-0.5 3.3 13.6 2.6 13.6 2.6 0.9 1.5 16.5 35.8 32.9 47.3 0-0.1 9.7-56.6 11.8-68.6 1.9-11.9-3.8-19.2-6.3-19.7zm-5.5 88.3q0 0 0 0 0 0 0 0zm27.7-120.6c0 0-6.9-5.9-3.5-15.7 0 0-8.8-1.9-15.7 0.5-7 2.5-9.6 17.3 0.2 21 9.8 3.8 19-5.8 19-5.8zm6.5 14.5c0 0-9.9 2.1-11.7 6-1.9 3.9 6.9 4.8 10.2 1.9 3.3-2.8 5.2-8.5 1.5-7.9zm64.7 130.5c-0.1 0-14.8-26.4-23.4-43.1-8.6-16.7-15.8-33.5-15.8-33.5 0 0.1-13.7 28-21.5 50.4-7.9 22.5-8.3 31.8 16.2 32.6 24.6 0.8 44.4-6.4 44.5-6.4zm25.9-30.1q0 0 0 0 0 0 0 0zm0 0c13.7-24.6 24.7-52.3 26.3-89.2 0.2-10.1-8.4-26.2-13.8-27.2-5.3-1.1-21.5 5-21.5 5-4.1 19.7-12.5 26.8-12.5 26.8-2.9 47.5 21.5 84.5 21.5 84.6z"/>
						<path id="&lt;Path&gt;" class="s11" d="m1492.2 1352.4c0 0-25.1-35.8-27.5-37.8-2.4-2-9.5-1.1-9.5-1.1 0 0 5.3 28.4 8.7 35.1 3.3 6.6 17.8 25.4 17.8 25.4 0 0 9 2.8 9 1.3 0-1.5 1.5-22.9 1.5-22.9z"/>
						<path id="&lt;Compound Path&gt;" fill-rule="evenodd" class="s10" d="m1466.3 1547c-12.5-4-20.8 0.2-20.8 0.2q0 0-0.2-0.5c2.5-14.9 5.2-30.5 6.2-36.1 1.9-11.9-3.8-19.2-6.3-19.7-1.8-0.4-20.7 9-29.9 14.5q-0.9-0.6-1.7-1.1c-14.5-8.8-13.3-29.2-13.3-29.2q0 0 0 0c9.4-7.6 24.5-20 28.1-24.5 5.4-6.6 5-17.3-3.3-22.8-8.2-5.4-28.7-15.4-38.4-24.3 0 0-0.2 5-0.3 12.8q-8.5-13.1-16.9-26.2c39.1 29.8 78.5 35.2 60.1 24.7-18.5-10.4-17.4-31.8-17.4-31.8q1.9-5.6 3.7-11.1c30 13.5 33.5 8.6 29.7-2.6-2.1-6.3-8.2-26.6-13.2-43.3q8.8-6.2 17.7-12.4c12.6 48.7 36.4 57.5 36.4 57.5q5.1-15.7 10.3-31.4c1.9-5.3 4.3-11.7 6.7-18.2 12.1 4.9 14.7 21.5 14.8 21.5-0.1 0-6.3 36.5-6 49.6 0.4 13.2 9 25.5 9 25.5 0 0 26.1 11 28.5 13 2.4 1.9 0.8 12.1-1.2 15-2 2.9-25 12.9-25 12.9q-2.1 6.6-4.3 13.2-0.6 16.1-1.2 32.2c-13.7 12.2-28.2 4.1-28.3 4.1-14.1 7.3-23.4 38.5-23.5 38.5zm20.2-175.9q0 0 0 0zm-20.2 175.9q0 0 0 0zm40.2-85.3c-6.2 5.3-8.4 3.5-13.5 4.5-5.2 1-4.8 5.7-4.8 5.7-12.8-1.6-20-21.3-20-21.3 0 0 4.3 28.1 20.5 29.3-1.6 0.7-3.1 1.6-4.3 2.6-2.9 2.5-7.3 7.3-7.7 11.2-0.4 4 3.4 4.9 8.9 1 7.7-5.3 11.8-12.4 9.1-15.5 21.2-6.2 19.3-39.9 19.3-39.9 0 0-1.2 17-7.5 22.4zm-9.1-69.3c1.7 2.7 9.1 16.7 9.1 16.7 0.8-3.9-2-18.3-5.1-20.3-3.2-2-5.7 0.9-4 3.6zm-16.3-3.8c0.4 2.4 8.2 5.7 8.2 5.7 0 0 0.8-4.9-1.6-7.1-2.4-2.2-7.1-1.1-6.6 1.4zm-8.6 25c-7.8 14.8-4.6 26.8-4.6 26.9-0.6-12.8 7.9-19.6 9.3-13.4 1.4 6.2 5.4 10.3 5.4 10.3 0 0 1.7-30.5 13-26.7 11.4 3.8 15.6 21.6 15.6 21.6 0 0-3.5-21.5-11.5-27.4-8-6-19.3-6.1-27.2 8.7zm10.1 23.8q0 0 0 0 0 0 0 0zm-14.7 3.1q0 0 0 0 0 0 0 0zm-11.4-39.6c3.7 4.6 10.5 7 14.9 7.7 3.3 0.5 4.4-1.3 4-4.6-0.6-4.1-2.5-10.4-9.2-14.2-10.7-6-15.2 3.9-9.7 11.1zm-1.1 25.4c5.6 0.9 10.7-0.5 7.3-4.5-2.2-2.5-8.5-6.1-12.4-3.3-3.9 2.9-0.6 7 5.1 7.8zm12 32.3c0 0-6.9-5.9-3.5-15.7 0 0-8.8-1.9-15.7 0.5-7 2.5-9.6 17.3 0.2 21 9.8 3.8 19-5.8 19-5.8zm5 22.4c3.3-2.8 5.2-8.5 1.5-7.9 0 0-9.9 2.1-11.7 6-1.9 3.9 6.9 4.8 10.2 1.9z"/>
						<path id="&lt;Path&gt;" class="s11" d="m1560 1582.1q2.2-4.3 4.5-8.6c0 0-24.4-37.1-21.5-84.6 0 0 8.4-7.1 12.5-26.8q-15.9-1.5-31.9-3.1c0 0-3.3 11.9-5.9 15.1-2.6 3.5 12.7 100.1 42.3 108z"/>
						<path id="&lt;Compound Path&gt;" fill-rule="evenodd" class="s13" d="m603.4 1284.2c-0.8 77.8-27.3 140.1-60 139.3-32.7-0.8-58.4-63.9-57.4-141.2 0.9-77.2 28-139.6 60.5-139.4 32.5 0.2 57.7 63.4 56.9 141.3zm-37.7 5c-1.2 2.8-4.8 5.4-4.2 6.6 0.7 1.2 6.3 1.8 7.9 3.5 1.5 1.7 3.4 16.9 3.4 16.9q0.7-14 1.4-28.1c0 0-7.4-1.8-8.5 1.1zm-15.4-34.3c-6.7 1.3-1.8 17.3 11.7 19.9 0 0-6.9-10.3 1.7-12.8 0 0-6.6-8.4-13.4-7.1zm-6.6 12.3c-2-1.2-18.1-1.5-18.4 1.1-0.2 2.6 24.1 8.2 24.1 8.3 0-0.1-3.7-8.2-5.7-9.4zm-11.2-76.8c-0.1 3.9 18.3 27.3 19.4 25.9 1-1.4-1.6-25.7-0.8-32.5 0.7-6.7 8.3-14.5 8.3-14.5 0 0-4.4 2.8-7.5 6.3-3.1 3.6-6.2 8.9-11.3 8.8-5 0-8.1 2.1-8.1 6zm-29 64.9q0 0 0 0zm0 0c0 0 5.6 1.5 5.6 0.4 0-1 3.1-33 8-44 0 0 5.9 3.6 6.9 7.2 0.9 3.5 1.5 15 0.1 14.6-1.3-0.4-7 1-7 1 0 0-2.9 17.4-1.6 18.5 1.3 1.1 4.7 0.4 5.3 2.2 0.7 1.8-0.1 5.7 2.9 6.8 3 1.1 16.2 0.6 16.2 0.6 0 0 2-4.9-0.3-8.8-2.3-4-11.5-14.2-11.2-18.5 0.4-4.2 3.7-17.8 3.7-17.8-0.1 0-11.7-23.3-13.4-25.4-1.6-2.2-9.5 11.6-13.1 32.2-3.7 20.7-2.1 31-2.1 31zm20.3 71.5c0 0 16.5-17.5 17.5-22.3 0.9-4.7-2.2-8.1-9.8-10.6-7.5-2.5-19.5-4.6-19.6-4.6 0.1 0 10.7 4.2 10.4 7.5-0.2 3.3 1.5 30 1.5 30zm-11.9-37.5q0 0 0 0 0 0 0 0zm38.8 38.7c-10.1 6.1-17.7 19.6-17.7 19.7q1.4-1.2 2.7-2.4c2.9-2.6 7.4-0.1 7 3.9q0 0 0 0.1c-0.5 3.8-16.8 17.5-16.5 20.1 0.2 2.6 9.8 3.3 11.4 4.7 1.5 1.5-5.2 8-3.9 10.4 1.3 2.4 9 1.4 9 1.4q0.2-3.6 0.4-7.3c1.1-17.8 7.6-50.6 7.6-50.6zm11.5-30c-10.6 0.5-16.5 14-9.8 11.9 6.8-2 9.8-12 9.8-11.9zm1.9 16.2c2.2 1.7 4.3-1.8 1.8-7.8 0 0-4.1 6.1-1.8 7.8zm22.4 47.8c0 0-13.8-17-19.4-33.9 0 0 1.2 14.6 4.9 20.8 0 0-6.8 17.3-7.5 23-0.8 5.7-1.8 21.1 1.2 22.6 3.1 1.4 7.5-1.3 7.5-1.3 4.7-7 9.1-17.1 13.3-31.2zm7.7-30.6c0 0 4.8-23.9 2.4-77.7-2.3-53.7-21.6-85-21.7-85 0 0 0.6 5.3-0.4 7.8-1.1 2.5-5.6 6.1-5.1 17.2 0.5 11 5.6 31.8 12.6 36.6 7.1 4.7 3.2 18.6 3.2 18.6 5.4-1 9.4 1.9 6.6 6.9-2.7 5-11 20.6-9.4 29.6 1.6 9 8.4 4.4 6.5 20.5-1.8 16.1 5.3 25.5 5.3 25.5z"/>
						<path id="&lt;Compound Path&gt;" fill-rule="evenodd" class="s10" d="m548.1 1345.6c0.9-5.3 5.6-30.6 5.6-30.6 0 0-9.2 3.4-11.8-3.3-2.7-6.7 4.6-13.5 4.6-13.5-1.6-3.9-0.5-9.9-0.5-9.9-1-3.5 0.9-7.7 0.9-7.7q1.2-2 2.5-4c0-0.1-3.7-8.2-5.7-9.4-0.5-0.3-1.8-0.6-3.5-0.7 0.7-2.4 2.8-9.4 2.3-13.1-0.6-4.6-11.2-15.9-11.6-19.2-0.4-3.4 2-12.6 2-12.6 0 0 18 21.1 22.5 21.5 4.5 0.2-2.3-24.6-2.3-24.8 0.1 0.2 11.6 36.8 14.8 35.6 3.1-1.1 6.4 5.4 6.4 5.4 0 0 3.7-4.3 6.6-5.2 3-0.9 6.1-0.8 1.9 8.6-4.1 9.5-4.7 24.1-3.6 25.3 1.1 1.2-0.9 14.7 1.1 26.5 1.9 11.7 13.8 19.3 13.8 19.3 0 0-3.6 7.3-9.5 5.3-5.9-2-16.3-19.6-19.5-18.9-3.1 0.6-12.1 31.9-12.1 31.9 0 0-5.9-1.3-4.9-6.5zm26.2-86.3q0 0 0 0zm-41.4-37.7q0 0 0 0zm20.2-3.3q0 0 0 0 0 0 0 0zm12.6 70.9c-1.2 2.8-4.8 5.4-4.2 6.6 0.7 1.2 6.3 1.8 7.9 3.5 1.5 1.7 3.4 16.9 3.4 16.9q0.7-14 1.4-28.1c0 0-7.4-1.8-8.5 1.1zm0.2 17.2c0 0-4.1 6.1-1.8 7.8 2.2 1.7 4.3-1.8 1.8-7.8zm-3.9-31.6c0 0-6.9-10.3 1.7-12.8 0 0-6.6-8.4-13.4-7.1-6.7 1.3-1.8 17.3 11.7 19.9zm0.2 23.2c-10.6 0.5-16.5 14-9.8 11.9 6.8-2 9.8-12 9.8-11.9z"/>
						<path id="&lt;Path&gt;" class="s9" d="m471.8 1190.2c-2.3-2.2-31.1-17.7-31.1-17.7 0 0-2.6-0.7-2.4 6.4q0 0.3 0.1 0.7c8.2 5.5 44 19.2 45.2 19.6 0 0-9.5-6.9-11.8-9z"/>
						<path id="&lt;Path&gt;" class="s1" d="m858 784c-44.7 17.8-119 59.4-164.2 90.8-53.7 37-95.2 74.5-95.2 74.5-0.1 0-83.6 7.8-128.7 35.5-1 0.5-1.8 1.3-2.6 2 13.8-4.6 80.6-24.7 145.1-21.6 0 0-10.8-6.7-9.8-9 0.3-2.4 130.5-119 255.4-172.2z"/>
						<path id="&lt;Path&gt;" class="s6" d="m780 1037.9c0 0 0.8-4.3 6.8-4.3 5.9 0.1 19.8 2.3 24.2 6.6 4.4 4.4 3.6 9.4 3.6 9.4 0 0-2.3-6.1-7.4-8.7-5.2-2.5-21.5-6.2-27.2-3z"/>
						<path id="&lt;Path&gt;" class="s9" d="m759 1043.2c0 0-3.1 23 1.6 28.1 4.7 5 41.5 12.7 52.8 9.9 0 0-37.7-3-47.8-12.7-4-3.9-2.3-14.6-0.6-23.5-1.9-5.6-6-1.8-6-1.8z"/>
						<path id="&lt;Path&gt;" class="s12" d="m2297.8 1467.5c-2.9 0.4-15 1-31.2 1.6-4.2 9.8-20.6 47-27.1 47.4-7.4 0.6-15.7 5.5-24.1 12.3-8.4 6.8-74.5 10.7-107.2-2-14.2-5.6-25-9.7-32.8-12.5-1.6 25.8 12.6 47.9 34.5 57.8 25.1 11.3 95.7 5.6 113.2 3.3 17.5-2.4 16.5-7.9 30.1-32.7 13.6-24.7 35-50.2 37-53.3 2-3.1 7.6-21.9 7.6-21.9z"/>
						<path id="&lt;Path&gt;" class="s10" d="m2194 1243.1c0 0 7.4 9.5 8.1 15 0 0 19.6 1.7 21.4 0.3 1.8-1.4 2.2-4.7 4-5 1.8-0.4 11 0.5 12.4 2.7 1.4 2.2 4.6 3.6 7.2 3.3 2.7-0.2 1.1-5.8 1.1-5.8 0 0 6.4-0.6 9.4 0.4 0 0-0.9-2.7-21.3-5.1-20.4-2.5-15.6-3.6-21.3-4.5-5.7-0.8-21-1.3-21-1.3z"/>
						<path id="&lt;Path&gt;" class="s9" d="m1218.2 1244.9c0 0-0.8 12.3-0.8 17.6-0.1 5.4-0.4 15.3 11.6 18.3 12 2.9 26.8 7.3 29.2-3.9 0 0-32.4-11.9-35.2-15.9-3.7-5.2-3.5-8.1-4.8-16.1z"/>
						<path id="&lt;Path&gt;" class="s10" d="m2095.2 1597.6c0 0 17.7 10.4 75.7 10.4 58.1 0 129.6-2.9 129.5-2.9 0.1 0-94.5 18.6-152.4 13.5-57.8-5.1-52.8-21-52.8-21z"/>
						<path id="&lt;Path&gt;" class="s10" d="m2733.5 1549.2c7.7-9.9 9.4-17.5 5.5-26.4 0.9 8.4-1.1 14.4-14.1 26.6-14.3 13.5-56.6 33.6-97 49.8-40.4 16.1-133.7 38.9-272.4 57.4-138.6 18.5-282.5 21.4-406.9 12.6-116.8-8.3-187.9-17.3-218.6-23.9-8-1.7-16 3.8-16.1 11.4-0.1 2.1 0.5 3.7 2.4 4.6 9.8 4.5 125 13.4 197.5 18.5 72.6 5.1 174 10.6 283.5 3.1 109.5-7.4 213.4-21.8 335.9-47.6 122.5-25.8 188.8-71.3 200.3-86.1z"/>
						<path id="&lt;Compound Path&gt;" class="s10" d="m2576.2 1220.7c-4.6 2.8-9.8 20.9-14.4 24.2-4.1 3.2-147 27.6-172.2 26.4 0 0 16 14.4 20.8 15.7 8.1 2 171.8-27 176.3-29.7 5.1-2.8 14.6-33.8 17.3-35.6 2.7-1.7 33.6-3.8 33.6-3.8 0.1 0-56.8 0-61.4 2.8z"/>
						<path id="&lt;Path&gt;" class="s6" d="m1226.5 1263.8c0 0-5.1-1.4-5.2-8.4-0.1-6.9-0.1-18.3 9.9-17.4 10 0.8 24.1 3.4 26.7 5.1 2.5 1.7 6.1 3.7 6.2 13.3 0 9.5-0.2 10.8-0.2 13.4 0 2.5-3 9.8-14.1 7.6q-11.7-6.8-23.3-13.6z"/>
						<path id="&lt;Path&gt;" class="s14" d="m1249.8 1277.4q-7.7-1.5-15.4-3c-4.5-0.9-8-5.7-7.9-10.6q0.1-5.8 0.2-11.6c0.1-5 3.8-8.2 8.3-7.3q7.7 1.5 15.3 3c4.5 0.9 8.1 5.7 8 10.6q-0.1 5.8-0.2 11.7c-0.1 4.9-3.8 8.1-8.3 7.2z"/>
						<path id="&lt;Path&gt;" class="s1" d="m1229.9 1260.7c0.1-3.9 3-6.5 6.6-5.8q6 1.2 12 2.4c3.5 0.7 6.2 4.2 6.3 7.9q0.1-3.1 0.1-6.1c0.1-3.9-2.7-7.6-6.3-8.4q-6-1.2-12-2.4c-3.6-0.7-6.5 1.9-6.6 5.8q-0.1 4.6-0.2 9.2 0 0.2 0.1 0.4 0-1.5 0-3z"/>
						<path id="&lt;Compound Path&gt;" class="s1" d="m1543.1 784.1c76 41.1 217.4 177.6 217.7 178.3q29.1 0.9 58.3 1.9c-171.3-145.7-275.7-179.5-276-180.2zm108.2 15.6c-11.3-4-23-6.6-35-7.9q-5.8-0.7-11.5-1.3c117.3 57.7 229.4 151.8 255.8 175.2q36.2 1.2 72.3 2.5c-90-75-182.9-133.2-281.6-168.5z"/>
						<path id="&lt;Path&gt;" class="s1" d="m1261.3 1002.2c4.3 0 9.8-0.4 14.6-2.3-33.8-59.3-66.7-117.6-98.7-174.3 27.1 57.4 55.2 116.5 84.1 176.6z"/>
						<path id="&lt;Path&gt;" class="s1" d="m1096.3 752.2c44.2 6.6 51.6 29.3 51.6 29.3 0 0-3-14 16.4-17.1 20.9-3.3 89.9-7.6 169.9-5.6 80.1 1.9 214.5 6.3 307.6 30.7-73.8-23.7-138.2-29-203-34.3-98.4-7.8-211-10-324-9.4-53.5 0.2-100.8 4.9-139.8 10.9 0 0 83.3-10.2 121.3-4.5z"/>
						<path id="&lt;Path&gt;" class="s1" d="m1111.2 929.4c-3.5-3.2-7.9-5.1-12.7-5.6-14.7-1.5-58.1-5.7-78.4-4.7-14.1 0.7-22.7 4-28.1 8.4 8.3-5 16.7-5.3 58.2-0.7 45.2 4.9 66.3 24.8 66.3 31.6 0.1 8.5-16.1 9.4-28.4 10.8 23.9 1.3 46.5 1.9 47-0.3 0.9-3.6 2.2-9.2 2.2-9.2 0 0-15.1-20.6-26.1-30.3z"/>
						<path id="&lt;Path&gt;" class="s1" d="m746.3 981c-0.2 0-117.6-12.8-119.6-18.8-2.3-6.1 51.7-59.8 91.4-84.5 0 0-34.4 26.9-61 68.2-4.5 7-7.3 16.7 10.9 20.3 14 2.8 78.2 14.8 78.3 14.8z"/>
						<path id="&lt;Path&gt;" class="s11" d="m1287.1 987.8c0-0.1 31.1-38.2 91.2-40.3 60.2-2.2 110.9 33.9 111 34-67.5 2-134.9 4.1-202.2 6.3z"/>
						<path id="&lt;Path&gt;" class="s11" d="m1260.4 946.2c0 0 20.3-11.1 43.8-10.5 14.9 0.4 27 5.7 33.9 9.6 2.5 1.4 2 5.1-0.9 6q-1.1 0.3-2.2 0.6c-0.9 0.3-1.7 0.2-2.5-0.2-3.3-1.7-14-6.4-29.7-7.2-19.1-0.9-37.2 9.6-37.2 9.6q-2.6-3.9-5.2-7.9z"/>
						<path id="&lt;Path&gt;" class="s1" d="m1213.5 1022.2c0 0 108.3 4.2 232.2 19.8 147.6 18.4 315.3 52.9 330.7 55.9 0 0-109.6-30.8-216.1-50.9-106.7-20.3-280-49.1-279.8-49 0-0.1 10.2 26.3-67 24.2z"/>
						<path id="&lt;Path&gt;" class="s10" d="m2178.7 1548.8c-39.3-0.2-49.5 2.5-52.9 6.4-3.4 3.9 4.8 13.9 44 14.5 39.3 0.7 57.1-2.1 61.4-9.5 4.7-8 1.8-14.2-8.2-14.6-9.9-0.4-29.3 3.4-44.3 3.2z"/>
						<path id="&lt;Compound Path&gt;" class="s12" d="m2599.9 1499.6c-75.7 18.4-153.1 36.8-231.4 55q-1 3.2-1.8 5.9c79.3-18.4 157.6-37 234.3-55.6 1.4-0.3 2.3-1.8 2-3.3-0.3-1.5-1.7-2.4-3.1-2zm2.6-16.7c-74.4 17.3-150.3 34.5-227.1 51.6q-1.2 3.1-2.2 6c77.9-17.3 154.9-34.7 230.3-52.2 1.5-0.3 2.4-1.8 2.1-3.3-0.3-1.5-1.7-2.4-3.1-2.1zm10.7-47.7c-0.3-1.5-1.6-2.5-3.1-2.2-66.5 12.7-134.2 25.5-202.9 38.3q-2.1 3.1-4.2 6.3c70.4-13 139.9-26.1 208-39.2 1.4-0.3 2.4-1.7 2.2-3.2zm-5.6 14.4c-69.9 14.4-141.2 28.9-213.5 43.2q-1.7 3.2-3.3 6.3c73.7-14.7 146.4-29.4 217.7-44.1 1.5-0.3 2.4-1.7 2.2-3.2-0.3-1.5-1.7-2.5-3.1-2.2zm-2.5 16.7c-72.5 15.9-146.4 31.8-221.3 47.6q-1.4 3.1-2.7 6.1c76.1-16 151.3-32.2 224.9-48.3 1.5-0.4 2.4-1.8 2.2-3.3-0.3-1.5-1.7-2.4-3.1-2.1z"/>
						<path id="&lt;Path&gt;" class="s10" d="m873.9 792.9c0-0.1 96.1-14.6 139.6-13.2 43.5 1.4 39.8-4.4 56-1.2 14 2.9 29.1 5.7 68.4 81.5 0-0.1-17.6-41-34.3-63.5-16.8-22.6-37.4-27.2-70.1-26.5-28 0.4-159.6 22.8-159.6 22.9z"/>
						<path id="&lt;Path&gt;" class="s8" d="m671.2 1401.7c-0.6-0.2 142.9 34.8 291.1 69.1 147.5 34.5 299.6 68.4 300.4 67.6 2.9-1.4-34.3-39.9-44.5-43.7-11.2-3.6-368.6-85.8-428.3-97.9-61.6-12-107.9-20.7-115.2-4.6 0.2 0 30.6-10 148 16.8 116.8 26.8 378.1 86.2 392 90.7 13.5 4.5 35 32.1 35 32 0 0-28.2-22.3-44.6-27.9-17.3-5.4-329-75-388.9-88.7-61.5-13.7-122.8-25.9-145-13.4z"/>
						<path id="&lt;Path&gt;" class="s8" d="m662.8 1341.7c43.3 8.3 87.1 16.6 131.3 24.9 0 0-14.5-13.7-18.7-15.7-4.4-2-108.2-18.7-110.2-19.2-3.9-0.8-2.4 10-2.4 10z"/>
						<path id="&lt;Compound Path&gt;" class="s1" d="m1097.8 814.1c0 0-12.9-7.4-51.1-11.2 39.3 30.3 66.1 86 72.8 101 13.4-2.3 25.2-3.1 25.2-3.1-8.5-33.5-47-86.8-46.9-86.7zm-73.1-12.8c-10.2-0.5-21.8-0.8-34.8-0.6 9.3 7 73.2 56.2 105.5 109.2 4.3-1.6 9.3-3 14.5-4.1-27.3-56.5-70.3-92.9-85.2-104.5z"/>
						<path id="&lt;Path&gt;" class="s11" d="m866.1 813.8c-0.1-0.1-43.2 70.1-62.7 135.9-0.1-0.1-98.7-10.4-102.2-11.8-3.7-1.4-0.2-26.7 6.3-35.2 3.6-4.7 32.5-27.7 66-48.5 48.5-30.3 92.6-40.4 92.6-40.4z"/>
						<path id="&lt;Path&gt;" class="s10" d="m1983.1 1210.7c0 0-22.4 16.8-6.3 44.8 0.1 0-41.1-9.3-43.9-22.5-2.7-13.3 22.2-30.5 50.2-22.3z"/>
						<path id="&lt;Path&gt;" class="s1" d="m1896.5 1229.5c0 0 57.3 5.2 57.8 3.3 0.5-2-40.2-16.2-46.5-14.9-6.4 1.4-13.3 10.1-11.3 11.6z"/>
						<path id="&lt;Compound Path&gt;" fill-rule="evenodd" class="s1" d="m1432.9 1229q2.4-0.7 4.8-1.4-1.7 0.4-3 0.8-0.9 0.3-1.8 0.6zm43.3-5.1q-8.5-1.2-16.7-0.7-10.6 1.1-21.8 4.4c12.4-3.1 41.2-6.5 75.9 14.4 46.7 28 69 91.2 79.6 135.7 10.7 44.6 11.5 123.9-5.6 167.2 0 0 6.9-12.3 12.8-34.9 2.8-15.1 4.7-31.2 5.4-48.2 4.9-119.6-55.2-228.2-129.6-237.9zm111.4 321q0 0 0 0 0 0 0 0z"/>
						<path id="&lt;Path&gt;" class="s11" d="m1538.8 1636.7c-0.1 0-23.8 32.4-75 25.7-51.3-6.7-87.1-49.6-109.6-89.7-22.5-39.9-30.5-89.1-33-125.4-3.7-52.3 8.9-96.7 8.9-96.7-0.1 0-11.4 74 2.4 139.9 13.7 66 47.1 122.2 75.5 142.4 28.4 20.4 51.9 27.6 83.6 25.3 31.6-2.3 47.2-21.5 47.2-21.5z"/>
						<path id="&lt;Path&gt;" class="s11" d="m1637.5 1519.4c0 0-1.3 19-0.8 20.5 0.4 1.4 21.2 7.8 23.1 7.4 2-0.5 0.9-19.5-1-21-1.9-1.4-21.3-6.9-21.3-6.9z"/>
						<path id="&lt;Path&gt;" class="s11" d="m1637.5 1549.8c0 0-2.1 11.4-0.7 12.3 1.4 1 14.9 8.7 14.9 5.9 0.1-2.8 1.2-11.8-0.7-13.7-1.9-1.9-13.5-4.5-13.5-4.5z"/>
						<path id="&lt;Path&gt;" class="s11" d="m1634.2 1570.9c0 0-2.3 11.2-1.7 13.7 0.7 2.5 3.9 8.5 6.8 8.9 2.9 0.4 9-0.9 10.2-2.7 1.1-1.7 1.6-11.9 0.2-13.7-1.4-1.8-15.5-7.7-15.5-6.2z"/>
						<path id="&lt;Path&gt;" class="s1" d="m1448.7 1243.6c17.3-2.4 41.1 4.6 41.1 4.6-15.4-2.8 21.7 18.2 28.6 20.5 2.8 0.8 4.2 1.3 4.2 1.3 0 0.1-0.6 8.4-6.6 20.5 0 0 11.7 8.9 12.1 10.4 0.3 1.4-3.1 13.9-3.1 13.9q-7.5-3-15-6.1 6.1 6.7 12.3 13.4c-8.4 24.1-13.2 64.3-13.3 71.6-0.1 7.3 2.8 11 7.3 38 4.5 27-9.6 46.6-9.6 46.6 10.3-6 16.7-21.5 17.9-34.9 1.2-13.4-1.2-28-6.2-35.7-5.1-7.7-1.7-15.3-1.1-37.6 0.6-22.3 17-66.6 18.9-69.1 1.8-2.6 8.8-4.7 10.3-4.7 1.5 0.1 4.5-4.3 2.3-6.9-2.2-2.6-22.9-22.4-22.9-22.4 0 0-14.4-18.9-37.1-26.2-22.7-7.3-40.1 2.8-40.1 2.8z"/>
						<path id="&lt;Path&gt;" class="s11" d="m1373.7 1388.3c9.5 6.7 26.7 17.5 42.5 21 0 0-9.7-10.6-6.6-26.4q-18.9-8.8-37.7-17.6c0 0-0.2 0.2-0.5 0.5-6.5 6.5-5.3 17.3 2.3 22.5z"/>
						<path id="&lt;Path&gt;" class="s11" d="m1499.4 1527q-4.8-9.2-9.6-18.5c0 0-21.3 12.5-24 53-1.5 22.7 12.1 15.9 12.1 15.9q10.7-25 21.5-50.4z"/>
						<path id="&lt;Path&gt;" class="s1" d="m1483.3 1439.1c0 0 3.6-20.1 8.7-23.2 5.2-3 14.1 7 16.3 14.8 2.1 7.8 0.1 11.4-6.7 11.3-6.9-0.1-18.3-2.9-18.3-2.9z"/>
						<path id="&lt;Path&gt;" class="s1" d="m1482.3 1441c0 0-0.1 19.6-2.1 21-2 1.4-10.4-7.6-11.4-13.7-0.9-6 0.1-10.1 4.3-10.6 4.1-0.4 9.2 3.3 9.2 3.3z"/>
						<path id="&lt;Path&gt;" class="s10" d="m1594.5 1534.9c-11.4 34.5-34.5 47.2-34.5 47.2-7.5 1.8-18.7-13-18.7-13 0 0-5.9 6.3-11.7 6.2-4.6 0-9.8-6.9-11.8-9.9 8.6 16.5 20.8 38.3 20.8 38.2q-0.1 0-0.2 0.1 0.8 1.5 1.6 3c0 0-8.7 27.6-48.1 36.3-36.8 8.1-74.2-9.9-79.7-11.9 15 11.5 31.4 18.8 48.6 21 57.5 7.4 110.7-36.7 133.7-117.2z"/>
						<path id="&lt;Path&gt;" class="s1" d="m1486.5 1371.1c0 0-9.6 4.6-18.2-10.9-8.7-15.5-29.8-67.1-32.9-83.4-3.1-16.2-0.7-28.6 1.9-30.4 2.6-1.8 6.6-1 6.6-1 0 0-6 15.3-3.3 26.7 2.8 11.5 3.9 14.1 3.9 14.1q5 12 10 24c0 0 10.6 32.8 17.1 43.5 6.5 10.7 14.9 17.4 14.9 17.4z"/>
						<path id="&lt;Path&gt;" class="s1" d="m1369.9 1365.5c10.2 7.3 44.8 20.4 58.1 25 13.4 4.6 16.7-1 13.5-1-3.2-0.1-11.5-3.1-21.7-7.2-10.2-4-17.5-8.7-15.5-11.1 2-2.5 11.4 0.6 11.4 0.6-30.1-13.6-31.6-14.6-31.6-14.6 0 0 15.2-3.7 15.2-5.1 0-1.5 12.1-36.5 25.9-50.5q-1.8-13-3.6-26c-29.4 22.6-41.5 67.6-41.5 67.6q-7.4 0.7-14.9 1.3c3.5-41 43.7-85.8 25.6-65-18.1 20.9-31.1 46.6-32.6 59.5-1.6 12.9 1.5 19.3 11.7 26.5z"/>
						<path id="&lt;Path&gt;" class="s1" d="m1373.6 1497.2q9.3-7.9 18.7-15.8c-8.3-29.4-5.6-77.9-5.6-77.9 0 0-10.2-8.2-17.2-13.4 0 0-3.8 27.7-2.9 49 0.9 21.3 7 58.1 7 58.1z"/>
						<path id="&lt;Path&gt;" class="s11" d="m1503.1 1519.5c0 0 12.1 31.1 21.8 46.5 2.1 3.3 6.6 4 9.7 1.7q2.1-1.7 4.3-3.3-9.8-27.8-19.6-55.9c0 0-2.3 10.2-16.2 11z"/>
						<path id="&lt;Path&gt;" class="s1" d="m1415.5 1583.1c0 0 0.7-5.9 7.7-6.7 7-0.8 7.8 11.2 3.7 12.7-4.1 1.6-4.8 1.6-4.8 1.6 0 0 6.5 9.5 15.4 14.5 0 0 0.5-9.5 2.2-26-16.4-11.5-32-45.8-32.9-47.3 0 0-11.7 0.8-16.7 10.4 0 0 12.1 28.4 25.4 40.8z"/>
						<path id="&lt;Path&gt;" class="s1" d="m1489.8 1508.5c0 0-7-0.8-13.9 9.9-6.8 10.6-18.6 45.6-21.3 68.6-2.7 22.9-2.6 36.4 0.3 41.8 2.8 5.3 6.7 8.6 7.6 8.9 1 0.2 33.9 2.8 51.8-7.1 0 0-28.9 5.6-46.9 2.3 0 0-8.2-4.5-8.7-12 0 0 20.2-1.3 20.9-0.4 0.8 1-2.1 7.4 6.3 8.3 8.4 0.8 21.9-2.5 25.8-5.7 0 0-12.1 2.1-16.9-3.3-4.8-5.4-10.1-8.3-13.4-5.5-3.4 2.7-13.5-4.9-11.6-14.2 2-9.3 6.1-18.9 6.8-22 0.8-3-7-4.5-8.4-12.1-1.4-7.6 1-20.3 8.4-37.1 7.4-16.9 13.2-20.4 13.2-20.4z"/>
						<path id="&lt;Path&gt;" class="s1" d="m1512.8 1640c-41.4 14.2-79.2 2.7-104.9-24.2-25.6-27.1-42.7-52-59.3-117.8-16.7-65.8-2.5-143.8-2.5-143.8-13.3 29-15.6 81.6-10.3 127.4 9.6 65.2 38.1 119.6 75.1 148.5 9.5 6.7 19.8 11.9 30.8 14.9 45.6 12.7 71.1-5 71.1-5z"/>
						<path id="&lt;Compound Path&gt;" fill-rule="evenodd" class="s1" d="m1463.9 1503.1c-9-1.8-12.4 7.5-12.4 7.5 1.9-11.9-3.8-19.2-6.3-19.7-2.4-0.5-34 15.8-35 18.1-1 2.4 0 8.6-1.5 9.1-1.4 0.4-15 7.9-15.5 11.2 0 0.3 0.1 0.6 0.3 0.8q-0.2 0.1-0.3 0.1c-5.8-4.1-5.6-11.5-5.6-11.5 0.1 0 52.5-34.4 53.3-37.3 0.7-2.8-6.9-24.4-11.6-23.7-3.3 0.4-20.2 11.4-29 17.4 9.4-7.6 24.5-20 28.1-24.5 1.8-2.3 3-5 3.4-7.9 4-3.5 7.3-6 9.1-6.9 7.6-3.4 23.6-2.3 26.4-2q0 1.6 0.1 2.9c-0.6 6.7 0.1 12.6 1.6 17.6 1.8 7.7 7.1 24.6 19.7 25.6-1.6 0.7-3.1 1.6-4.3 2.6-2.9 2.5-7.3 7.3-7.7 11.2-0.2 1.7 0.5 2.9 1.7 3.3q-1.4 1.1-2.8 2.2c-8.5-1.1-11.7 3.9-11.7 3.9zm-76.3 15.6q0 0 0 0 0 0 0 0zm79.8-60.1c0 0-6.9-5.9-3.5-15.7 0 0-8.8-1.9-15.7 0.5-7 2.5-9.6 17.3 0.2 21 9.8 3.8 19-5.8 19-5.8zm6.5 14.5c0 0-9.9 2.1-11.7 6-1.9 3.9 6.9 4.8 10.2 1.9 3.3-2.8 5.2-8.5 1.5-7.9z"/>
						<path id="&lt;Path&gt;" class="s1" d="m1519.3 1472.2c0 0-8.8 2.6-3.4 28.3 5.4 25.7 15.1 49.8 19.9 59.8 4.8 10 12.1 23.5 24.2 21.8 0 0-7.9-1.7-16-17.2-8.1-15.4-18.8-46-22-65-3.2-19-2.7-27.7-2.7-27.7z"/>
						<path id="&lt;Path&gt;" class="s10" d="m1565.2 1383.5c0 0 7.8 29 10.7 29.4 2.9 0.4 7.3-1 7.4-3.6 0-2.5-7-28.9-8.5-30.1-1.4-1.1-10.3 2.1-9.6 4.3z"/>
						<path id="&lt;Compound Path&gt;" fill-rule="evenodd" class="s1" d="m1591.9 1460.2c-2-1-7.2-7.9-11.1-8.4-3.9-0.5-57.2 7.2-57.2 7.2 0 0 39.4-9.1 39.6-10.8 0.3-1.7 0.3-20.6-0.9-21.3-1.2-0.8-37.3-7.6-37.3-7.6 0 0 40 3.2 50 2.2 10.1-1.1 13.1-7.6 15.8-7.8 2.7-0.3 3.5 9.5 3.5 26.9 0 17.4-0.5 20.6-2.4 19.6zm-9.6-34c-1.7-0.3-11 0.8-11.5 2 0 0-0.5 18.6 1 19.1 1.4 0.5 11 1.2 11.5-0.3 0.5-1.4 0.7-20.6-1-20.8z"/>
						<path id="&lt;Path&gt;" class="s1" d="m1355.2 1383.7c0 0-10.3 56.1 5.5 116.4 0 0-1.3 6.9-5.3 1.9-4-5.1-11.5-57.2-9.5-89.3 2-32 4.5-32 9.3-29z"/>
						<path id="&lt;Path&gt;" class="s1" d="m1375 1542.9c2.6 6 8.1 26.7 32.6 54.6 18.2 20.8 24.8 22 25.5 24.2 0.7 2.1-1.8 6.6-17-6.7-15.1-13.3-29.7-35-36.3-46.3-6.6-11.3-10-21-9.9-24.3 0-3.3 3.9-4.1 5.1-1.5z"/>
						<path id="&lt;Path&gt;" class="s11" d="m1539.4 1376c-1.1-1.2-1.8-3.9-2.1-7.6q-2.1-12.2-4.2-24.5c-7.8 3.2-12.9 27.7-11.8 30.6 1.1 2.9 12 12.2 12 12.2 0 0-8.4 5.3-9.8 8.7-3.4 7.8 3.3 14 4.8 14.4 1.4 0.4 26.3 2.9 26.3 2.9-1.4-2 2.2-19.4-15.2-36.7z"/>
						<path id="&lt;Path&gt;" class="s11" d="m1373.6 1497.2c0 0-17.5-24.7-20.4-59.9-2.8-35.2 4.7-52.3 4.6-52.3q5.9 2.5 11.7 5.1c0 0-8 44.3 4.1 107.1z"/>
						<path id="&lt;Path&gt;" class="s11" d="m1437.2 1612.8q-0.9 6.1-1.8 12.2c0 0 5.8 5.7 21.3 9.4 0 0-6.9-7.8-6.9-17.6 0 0-5.4-5.3-12.6-4z"/>
						<path id="&lt;Path&gt;" class="s10" d="m1456.7 1586.4c0 0.1-3.7 26.3 0 30.5 0 0 9 1.6 11.9-3.3 0 0-2.3-10.5-6-13-3.6-2.5-3.6-2.7-3.6-2.7 0 0-2.7-6.9-2.3-11.5z"/>
						<path id="&lt;Path&gt;" class="s10" d="m1355.4 1508.4c0 0 6.8 26.9 11.4 31.4 4.7 4.6 3.9-7.1 3.9-7.1q7.4-6.4 14.8-12.8c0 0-15.1 9.5-17 8.8-1.9-0.8-8-17.1-6.8-18.5 1.2-1.4 13.3-9.8 13.3-9.8 0 0-13.1 6.2-15.5 6.6-2.4 0.5-4.1 1.4-4.1 1.4z"/>
						<path id="&lt;Path&gt;" class="s11" d="m1484.4 1442.9c0 0-3.1 13.3 4.9 17.4 8.1 4.1 13.4-1.8 12.3-5.6-1-3.8-9.8-0.7-13.5-3.1-3.6-2.4-3.7-8.7-3.7-8.7z"/>
						<path id="&lt;Path&gt;" class="s11" d="m1359.7 1360c0 0-4.5 16-0.6 17.3 3.9 1.3 6.4-12.6 6.4-12.6 0 0-4.1-2.9-5.8-4.7z"/>
						<path id="&lt;Path&gt;" class="s11" d="m1421.6 1275.6q-1.2-6.3-2.5-12.6c0 0-44.7 37.1-36.4 61 0 0 15.5-35 38.9-48.4z"/>
						<path id="&lt;Path&gt;" class="s11" d="m1442.1 1299.6c0 0-4.4-18.7-8-20.9-3.7-2.3-11.1 5.7-3.8 28.8q5.9-4 11.8-7.9z"/>
						<path id="&lt;Path&gt;" class="s11" d="m1433 1316.8q0.5 2.2 1.1 4.5 6.7-4.1 13.5-8.2-1.5-3.8-3.1-7.6-4.4 2.6-8.9 5.2c-2.1 1.2-3.1 3.7-2.6 6.1z"/>
						<path id="&lt;Path&gt;" class="s11" d="m1441.7 1256.2c0 0 0.4-8.8 6.8-10.7 6.3-1.8 27.4 1.4 27.4 1.4 0 0-11.6 0.6-14.3 2.7-2.7 2.2-3.5 6.8-3.5 6.8q-8.2-0.1-16.4-0.2z"/>
						<path id="&lt;Path&gt;" class="s11" d="m1550.7 1293.2c0 0 4.8 6.7 5.8 8.9 0.9 2.2-11.1 0.6-16.8 7.6-5.7 7.1-16.1 35.5-16.1 35.5 0 0 10.3-39.7 14.3-43.1 3.9-3.4 9.8-3.5 11-5.2 1.3-1.7 1.8-3.7 1.8-3.7z"/>
						<path id="&lt;Path&gt;" class="s11" d="m1348.4 1370.6c0 0-0.2-29.6 18.2-66.1 18.3-36.4 41.4-61.5 74.5-69.8 0 0-18.1 8.5-19.6 12.9-1.5 4.4 11.4 0.2 11.4 0.2 0 0-14.1 9.7-16.3 10.1-2.2 0.3-7 0.6-10.3 2.4-3.3 1.7-45.7 39.2-57.9 110.3z"/>
						<path id="&lt;Path&gt;" class="s11" d="m1385 1523.9c0 0-12.1 9.1-12.1 10.1 0 0.9 10.2 4.2 12.6 2.1 2.4-2.1-0.5-12.2-0.5-12.2z"/>
						<path id="&lt;Path&gt;" class="s11" d="m1432 1604.2c0 0 2.9 8.2 0.9 12.6-1.8 4.5-48.7-42.2-55.4-73.7 0 0 5.3-3 9.7 1.3 4.3 4.3 8 23.5 44.8 59.8z"/>
						<path id="&lt;Path&gt;" class="s11" d="m1427.4 1516c0 0 6.5 18.7 14.1 25.2q-2.7 14.4-5.5 28.7c0.1 0-22.4-30.1-24.6-43.1q8-5.4 16-10.8z"/>
						<path id="&lt;Path&gt;" class="s11" d="m1417.5 1429.9c0 0 0 13.5 2.8 21.8q-12.2 10.4-24.5 20.6c0 0.1-7.2-33.3-4.9-58.8q13.3 8.2 26.6 16.4z"/>
						<path id="&lt;Path&gt;" class="s11" d="m1432.1 1345.4c0 0-6 11.7-8.6 23q-10.4-5.3-20.8-10.6c0 0 10.5-33.1 19.8-41.5q4.8 14.6 9.6 29.1z"/>
						<path id="&lt;Path&gt;" class="s11" d="m1478 1590.3c0 0-2.9 13.3 6.1 15.5 9.1 2.2 21 2.4 21 2.4q-13.5-8.9-27.1-17.9z"/>
						<path id="&lt;Path&gt;" class="s11" d="m1550.3 1516.3c0 0 5.2 25.1 11.3 38.3 1 2 3 3.3 5.2 3.3 0 0 12.6-18.2 19.4-62.3 0 0-11.1 21.4-35.9 20.7z"/>
						<path id="&lt;Path&gt;" class="s12" d="m2148.1 1273.8c0 0-7.7 13-5.6 14.1 2.2 1.2 63.9 2 65.2 1.6 1.5-0.3-9.5-7.4-11.6-7.8-2.2-0.4-6.9 0.7-9.3-1.2-2.5-1.9-14.5-11.9-17.4-11.9-2.9 0-3 5.8-5.1 5.8-2.2-0.1-16.2-0.6-16.2-0.6z"/>
						<path id="&lt;Path&gt;" class="s12" d="m2309.6 1277.7c0 0 0.2 6.6 3 7.7 2.9 1.1 48-1.6 48-1.6q-25.5-3-51-6.1z"/>
						<path id="&lt;Path&gt;" class="s12" d="m1950.2 1183.6c0.1 0-58.3 12.4-80.1 30.4-7.4 6.1-7.6 13.6 32.6 33.2 0 0-40.2-15.2-47.5-23.6-7.2-8.5 28.3-27 50.5-32.2 28.2-6.5 44.5-7.8 44.5-7.8z"/>
						<path id="&lt;Path&gt;" class="s1" d="m535.8 1409.7c-19-11.7-22-29.2-23.6-26.6-1.6 2.6 3.5 15.5 3.5 15.5-12-15.5-15.8-42.6-15.8-42.6 4.6 9.6 8.7 6.6 8.7 6.6-6.8-13.9-8.8-36.5-9.8-66-0.3-9.9-2.5-9.6-4.7-8-2.3 1.7-1.3 24.6-1.3 24.6-5-19.1-5.3-39.7-6.1-48.5q-0.5 8.7-0.7 17.6c-0.6 49.8 9.8 93.7 26.1 118.9 5.8 4.9 5.4-3.3 5.4-3.3 8.2 9.7 18.3 11.8 18.3 11.8z"/>
						<path id="&lt;Path&gt;" class="s1" d="m567.1 1328.1c0 0-2.2-2.2-5.2-0.4-2.9 1.9-11.4 27-12.2 50-0.8 23.1 1.9 32.6 8.2 33.2 6.3 0.6 5.9-12.4 5.9-12.4 0 0-4.1 3-7.5-0.2-3.3-3.2-2.6-22.6 1.1-37.6 3.7-14.9 9.7-32.6 9.7-32.6z"/>
						<path id="&lt;Path&gt;" class="s11" d="m563.8 1196.2c-3.2 3.1 2 39.8 12.3 48.1 0 0-0.5-10.5 8.5-11.1-0.6-1.1-1.4-2.1-2.6-2.9-6.4-4.3-11.2-22-12.3-33.5-0.6-0.7-3.2-3.2-5.9-0.6z"/>
						<path id="&lt;Path&gt;" class="s1" d="m507.7 1291.6c0 0-1.1 19.5 1.8 35.4 3 16 5.7 17.5 8.4 17.3 0 0-5.2-26-4.4-51.4 0 0-2-1.5-5.8-1.3z"/>
						<path id="&lt;Path&gt;" class="s1" d="m527.1 1165.4c0 0 4.1-8.5 14.3-11.8 10.1-3.2 16.8 1.1 17.1 9.5 0.3 8.3-15 22.7-23.4 19.3 0 0 9.5-6.6 12.8-16.1 0 0-6.6 2.6-6.5 0.2 0-2.4 3.1-9 3.1-9 0 0-9 1.1-17.4 7.9z"/>
						<path id="&lt;Path&gt;" class="s1" d="m551.2 1239.9c0 0-18.8-19.1-27.2-37-8.4-17.9-5.5-30.2-4.4-30.4 1.1-0.3 7.8 0.5 9.2 7.9 0 0-4.4-1.2-2.3 8.5 2 9.8 8.8 22.5 15.1 30.9 6.4 8.4 11 15.8 9.6 20.1z"/>
						<path id="&lt;Path&gt;" class="s1" d="m561.2 1175.9c0 0 5.9-2.3 8.8-3.7 3-1.4 1.1-6.6-1-7.6-2-1-9.3 6.3-7.8 11.3z"/>
						<path id="&lt;Path&gt;" class="s1" d="m558.9 1189.5c0 0-2.6 11.4 0.7 29.3 3.3 17.9 8.5 35.1 16.1 36 0 0-7.2-15.6-10.1-34.5-2.8-18.9-1.1-30.3-1.1-30.3 0 0-2.8-2.4-5.6-0.5z"/>
						<path id="&lt;Path&gt;" class="s1" d="m577.7 1275.5c-0.5-6.6-4.1-9.3-8.9-8-4.7 1.4-4.9 12.8-0.4 15.1 4.5 2.2 9.9 0.8 9.3-7.1z"/>
						<path id="&lt;Path&gt;" class="s1" d="m555.8 1287.6c-2.8-3.6-7.8-4.6-8.1 1.1-0.3 5.7 2.1 11.4 6.6 10.6 4.5-0.9 2.6-10.2 1.5-11.7z"/>
						<path id="&lt;Path&gt;" class="s11" d="m539.7 1330.4c0 0-22 26.7-28.1 40.8 0 0-2.1-11.9-1.2-17.6 1-5.6 15.2-22.7 15.2-22.7 0 0-1.3 10.9 14.1-0.5z"/>
						<path id="&lt;Path&gt;" class="s11" d="m546.9 1280.6c0 0-20.1-3.4-23.9-6.1-3.7-2.7-3.3-4.1-5-4.8-1.8-0.8-16.5-1.5-16.5-1.5 0 0-1 10.2-0.2 16.2q22.3 1.9 44.7 3.9c0 0-0.3-4.4 0.9-7.7z"/>
						<path id="&lt;Path&gt;" class="s11" d="m503.3 1172.7c0 0 8.8-29.1 28.2-40.4 0 0 3.6-14.6 22.1-13.4 0 0 4.1-4 13.1-0.8 10.7 3.8 33.3 31.8 44.6 64.9 11.3 33.1 12.2 42.8 12.2 42.8 0 0 5.9-3.9 10.4 9.8 4.5 13.7 6.5 93.8-5.7 104.3-12.4 10.5-8-47.8-11.6-81.6-3.7-33.8-16.9-92.3-32.5-109.2 0 0 11.4 24.4 13.7 49.9 0 0-10.2-41.3-31.8-56.8-21.7-15.5-45.8-1.8-62.7 30.5z"/>
						<path id="&lt;Path&gt;" class="s6" d="m494.8 1254.8c0 0 4.3-48.3 21.1-76.3 16.9-28 30.1-29 39.1-25 9 4 14.6 9.8 14.6 9.8 0 0-7.8-15.5-25.3-15.2-17.5 0.2-48.6 38.8-49.5 106.7z"/>
						<path id="&lt;Path&gt;" class="s11" d="m513.5 1292.9c0 0-1 30.2 4.7 33.7 5.6 3.5 1.8-30.4 1.8-30.4 0 0-2.9-3.3-6.5-3.3z"/>
						<path id="&lt;Path&gt;" class="s11" d="m499.9 1290.2c0 0-0.1 25.2 3.7 23.7 3.9-1.5 4.1-22.3 4.1-22.3 0 0-3.7-1.4-7.8-1.4z"/>
						<path id="&lt;Path&gt;" class="s11" d="m545.5 1360c0 0 4.3-0.1 3.8 6.8-0.5 6.9-3.1 38.9 6.3 45.3 0 0-4.3 3.7-12.8 1.6 0 0-1.9-32.8 2.7-53.7z"/>
						<path id="&lt;Compound Path&gt;" class="s1" d="m843.7 880.2c-3.1 7.2-6 14.3-8.6 21 14.1 25.4 20.7 48.4 22.5 55.3q5.6 0.5 11.2 1.1c-6.8-28.2-16.4-55.4-25.1-77.4zm-16.7 7.8c3.5-7.7 7.1-15.2 10.5-22.1-5.9-17.4-13.1-31-16.3-36.6-10 4.3-21.1 9.6-32.8 16.1 16.1 12.4 28.8 27.5 38.6 42.6zm-50-36q-1.8 1.1-3.5 2.1c-5.6 3.5-11.1 7.1-16.3 10.6 27.1 17.9 50.7 42.8 58.1 50.9q3.2-8 6.5-15.7c-19.1-26.6-39-43.3-44.8-47.9zm47.3 78.7c7.1 10.9 10.8 19.3 12.5 23.6q7.2 0.8 14.4 1.5c-5.5-15.9-12.8-30.2-20.6-42.8-2.4 6.5-4.5 12.5-6.3 17.7z"/>
						<path id="&lt;Path&gt;" class="s9" d="m1407 1149.9c-0.1 0-33.1 6.9-50.2 19.8 0 0.1-26.5-15.5-103.2-37.8-26.5-7.6-81.6-22.3-97.3-26.1-13.8-3.3-53.9-12.1-0.7-3.3 52.9 8.8 251.1 47.3 251.4 47.4z"/>
						<path id="&lt;Path&gt;" class="s9" d="m721.4 1052.6c0 0 2.5-11.9-11.3-12.9q8.4-0.9 16.9-1.7-2.8 7.3-5.6 14.6z"/>
						<path id="&lt;Path&gt;" class="s11" d="m558.2 1285.7c0 0-4.8-2.7-8.7-3.3-3.9-0.6 5.5-8.3 7.8-4.5 2.3 3.7 0.9 7.8 0.9 7.8z"/>
						<path id="&lt;Path&gt;" class="s11" d="m565.6 1258.5c0 0-6.5-4.2-6.7-5.3-0.1-1 1.9-3.9 3.3-3 1.3 0.9 3.4 8.3 3.4 8.3z"/>
						<path id="&lt;Path&gt;" class="s11" d="m595.2 1341.2c0 0-2.8 11.6-4.8 17.8 0 0-3.1-12.7-1.1-15.3 2.1-2.6 5.9-2.5 5.9-2.5z"/>
						<path id="&lt;Path&gt;" class="s1" d="m595.6 1240.2c2 12.3 3.3 25.4 3.4 39 0 0 4-28.8-1.3-59.4q-1.8-9-4.1-17.2c-3.9-12.5-9.8-24.4-18.7-33.9 0.1 0 16.1 26.1 20.7 71.5z"/>
						<path id="&lt;Path&gt;" class="s1" d="m506.3 1261.2q-3.4-2.6-6.8-5.1c0 0 2.9-36.8 9.1-50 0 0-13.7 25.5-13.6 54.7 0 0-0.1 4 11.3 0.4z"/>
						<path id="&lt;Path&gt;" class="s1" d="m509.8 1258.9c-0.1 1.5 0.8 2.9 2.2 3.2 3.1 0.9 8.2 2.1 8.2 0.6 0.1-2.2-1.1-5.6-2.6-5.9-1.5-0.4-4.1-0.5-4.1-0.5 0 0-1.6-5.3-1.2-11.4 0 0-2.1 7.6-2.5 14z"/>
						<path id="&lt;Path&gt;" class="s1" d="m555.6 1315c1.6 2.9 7.1-1.1 6.4-6.7-0.6-5.5-8.9 2.2-6.4 6.7z"/>
						<path id="&lt;Path&gt;" class="s1" d="m572 1257.5c-2.7-2.5-5.9 0.3-5.1 3 0.8 2.7 5.4 5.4 7.1 4 1.7-1.4-0.8-5.9-2-7z"/>
						<path id="&lt;Path&gt;" class="s1" d="m564.1 1263.1c-2-0.5-4.4 0.4-4.6 2.6-0.1 2.3 0.9 4.1 4.1 3.1 3.3-1 2.2-5.3 0.5-5.7z"/>
						<path id="&lt;Path&gt;" class="s8" d="m1093.4 995.6q18.3 4.7 36.6 9.3-3.7 3.7-7.4 7.5c-0.4-0.1-192.7-14.4-195.8-13.7-3.6 0.7 10.3 9 14.5 10.1 3.8 1 187.4 20.8 187.8 20.9 0-0.1 4.1-14 24.3-14.9 20.3-0.9 40.8 2.2 40.8 2.2 0-0.1-26.6-15-31.9-16.5-5.4-1.5-69-4.9-68.9-4.9z"/>
						<path id="&lt;Path&gt;" class="s8" d="m1240.2 1003.3c-0.2-0.4-45.5-114.6-54.1-117.5-8.9-3.3-17.3 2.6-17.3 2.6 17.2 39.4 34.9 79.5 52.9 120 0 0 12.1-0.4 18.5-5.1z"/>
						<path id="&lt;Path&gt;" class="s8" d="m1116.5 793.2c0 0 17.8 26.7 27.1 44.7 0 0 13.7-2.6 20.3 1.6 0 0-24.7-36.2-47.4-46.3z"/>
						<path id="&lt;Path&gt;" class="s7" d="m2240.2 1156.1c-0.1 0.1 44.2 24 109.7 21.5q-33.4 3.4-67.1 6.8-21.3-14.1-42.6-28.3z"/>
						<path id="&lt;Path&gt;" class="s8" d="m1241.5 1054.2c-0.3-0.1 222.6 5.2 242.2 23 19.5 17.6-74.9 50-74.9 50 0.1 0 19.1-39.1-26.7-50.5-45.8-11.4-140.7-22.6-140.6-22.5z"/>
						<path id="&lt;Path&gt;" class="s8" d="m548.9 1072.2c0 0 15.9 4.1 33.9 20.1 9.6 8.6 53.9 14.3 73 17.7 22.8 4.1 56.6 8.7 56.6 8.7-0.2-0.1-102.6-24.2-114.9-30.8-12.5-6.8-40-17.1-48.6-15.7z"/>
						<path id="&lt;Path&gt;" class="s10" d="m2000.8 1236.7c0 0-0.9-18.7-8.5-22.4 0 0 9.1-1.7 13.4 4.2 4.3 5.9-4.9 18.2-4.9 18.2z"/>
						<path id="&lt;Path&gt;" class="s10" d="m2016.1 1229.6c0 0 5.9 27.9-9.1 35 0 0 4.9-10.9 4-26.7-1-15.7 4.1-11.2 5.1-8.3z"/>
						<path id="&lt;Path&gt;" class="s10" d="m2672.6 1201.8c0 0-6.2-24.1-16.9-32.1 0 0-0.3 4-1.8 5.9 0 0 4.3 11.7 7 13.2 2.7 1.5 7.6 1.6 11.7 13z"/>
						<path id="&lt;Path&gt;" class="s8" d="m1457.1 1132.7c0 0 42 0.5 46.5-1.8 4.4-2.5 32.4-39.5 48.1-45.6 17-6.6 107.3 7.2 107.3 7.3 0.1 0-72.6-14.2-165.9-31.3-93.6-17.1-271.2-34.8-277.8-34.3-6.8 0.4-10.4 23.4-10.4 23.4 0 0 7.1-13.9 81.5-8.8 74.4 5.1 197.7 23.9 221.5 34.9 11 5.1 13.7 14.7 0.9 30.6-15.4 19.2-51.7 25.6-51.7 25.6z"/>
						<path id="&lt;Path&gt;" class="s1" d="m1735.5 964.4c-0.1-0.3-90.6-90.5-150.7-132.8 0 0 62.2 55 134.9 132.3q7.9 0.2 15.8 0.5z"/>
						<path id="&lt;Compound Path&gt;" class="s1" d="m1047.8 873.2q0.6 0.8 1.1 1.7c0 0-0.3-0.6-1.1-1.7zm-75-72.2q-5 0.2-10.3 0.4c61.5 43.7 80.8 66 85.3 71.8-29.9-42.1-67.9-67.6-75-72.2z"/>
						<path id="&lt;Path&gt;" class="s11" d="m1675.3 1442.4c-3.4-1.5-24.8-4.7-24.8-4.7 0 0 20.5 0.8 21.5-2.1 1.1-2.9-0.1-21.4-4.4-24.3-4.4-3-12.2-7-12.2-7 0 0 14.7-0.3 15.2-1.8 0.5-1.4-2.1-21.4-5-23.4-2.9-2-17.5-5.6-17.5-5.6 0 0 16.6 1.2 18.1-2.2 1.5-3.4 3.2-14.6 0.8-17.6-2.4-2.9-7.2-7.9-7.2-7.9q-7.4-1.1-14.7-2.1c0 0 16.2 0.2 17.2-2.2 1-2.5-4.6-21.1-7.5-23.1-2.9-2-15.2-3.2-15.2-3.2 0 0 9.3-1.3 9.9-3.3 0.5-1.9-4.6-21.6-9-22.6-4.4-1.1-16.2-1.2-16.2-1.2 0 0 14.3-2.8 12.8-5.7-1.4-3-5.7-14.8-12-17.8-6.3-3.1-14.7-3.2-14.7-3.2 0 0 10.9-3.3 9.9-5.2-0.9-2-9.6-13.4-11.6-13.4-1.9-0.1-14.2-1.7-14.2-1.7 0 0 8.4-2.3 7.5-4.3-1-2-35.3-45.6-103.2-55.2-23.3-3.4-42.8-0.8-59.2 4.8 28.1-2.4 48.3 3.8 48.3 3.8-55.9-4.9-90.7 22.3-103 34.3-2.5 2.8-4.7 5.5-6.7 7.9-16.4 20.3-39.6 79.7-41.2 103.6-0.1 0.1 28.4-107.2 106.5-121.4 78-14.2 142.1 73 156.4 137.8 14.4 64.7 19.6 130.2 0.3 191.7-19.2 61.1 22.5 19 26.9-74.3 3.9-83.7-21.9-156.5-54.4-198.8-7.1-9.3-13.3-19.2-18.6-29.6-3.4-6.5-7.7-13.7-12.7-18.6-0.1-0.1 66.1 36.1 89.7 125.3 27.4 104.1 7.5 163.1 7.5 163.2 0 0 28.5 13.7 29.5 10.8 1-2.8 2.7-18.1 0.8-19.6-1.9-1.4-22.7-8.4-22.7-8.4 0 0 21.4 3.2 22.9 0.3 1.5-2.9 2.2-16.3 0.3-18.3-1.9-1.9-15-8.8-15-8.8 0 0 14.6 4 17 3.1 2.5-1 10.4-6.7 10.4-9.5 0.1-2.9-3.1-17-6.5-18.5z"/>
						<path id="&lt;Path&gt;" class="s11" d="m514.9 1411.6c0 0 11.1 17.4 31.4 16.2 22.8-1.4 39-33.6 39-33.6 0 0-11 32.1-29.1 38.6-18.9 6.7-35.5-7.8-41.3-21.2z"/>
						<path id="&lt;Path&gt;" class="s11" d="m1523.7 1656.8c0.1-0.1 28.4-16.4 57.5-68 18.5-32.7 11.9 32.4-23 61.2 0.1 0 16.2-3.5 39.6-39.5 13.9-21.3 25.3 15.1 6.2 40.5-24.5 32.4-90 52.2-150.8 26.8 0.1-0.1 38.7 11.5 84.9-16.7 0 0-23.5 7.5-14.4-4.3z"/>
						<path id="&lt;Path&gt;" class="s12" d="m2029.6 1255.4c0 0-4.5 11.6-5.2 13.8-0.8 2.2 15.9 4.6 21.3 4.3 5.4-0.3 12.2 5.3 15.5 5.4 1.9 0 6.1 0.4 9.1 0.8 1.7 0.2 3.1-1.4 2.7-3.1-1.2-4.7-3.5-12.8-5.5-14.1-2.8-1.9-37.1-8.9-37.9-7.1z"/>
						<path id="&lt;Path&gt;" class="s12" d="m2214.9 1286.4c2.1 1.9 4.7 3 7.5 3.1 8.3 0.2 26 0.5 26.7-0.2 1-1-7.9-8.3-10.8-8.4-2.8 0-29.4-1.8-28.5 0.1 0.5 1.1 2.9 3.5 5.1 5.4z"/>
					</g>
				</g>
				<g id="&lt;Group&gt;">
					<path id="&lt;Path&gt;" class="s1" d="m1509.8 1695c-27.4-6.3-45.2-9.1-65.8-12.5-19.2-3.1-40.9-6.7-74.9-13.7-60.9-12.6-115.4-16.5-127.6-17.3 0.4 4.8-0.6 8.6-3 11.6-3.2 4-9 6.2-17.1 6.4-5.4 0.1-12.1-0.7-19.7-2.2-24.7-5.1-109.2-21.3-133.9-26 1.8 2.3 2.4 5.2 1.4 7.7-0.9 2.3-2.9 3.8-5.4 3.8q0 0 0 0-0.8 0-1.5-0.1c-38.6-7.2-167.8-31.8-212-44.6-46.9-13.6-54.2-34.2-55.3-39.9-7.1-2.5-42.6-15.6-89.5-52.5-15.3-12.1-34.5-31.6-39.5-56.3-2.5-12.3-0.5-21 0.4-24-8.8-12.9-32.4-60.6-12.9-74.9 5-3.6 10.6-5.5 16.6-5.7 12.4-0.3 22.4 6.8 22.8 7.1l7.2 5.1-8.7-1.3q-1.2-0.2-2.4-0.2c-6.6 0.2-9.1 5.7-10.1 10.3-2.9 14.7 6.1 37.4 22.3 44.7 6.9 3.2 12.9 4.7 17.8 4.6 9.2-0.2 14.6-6.2 16.5-18.1 1.2-7.4 7.7-12.4 16.7-12.6 11.6-0.3 24.7 7.3 35.9 20.6 20.2 24 18.1 41.3 16.9 46.1 5.6 5.4 17.3 11 26.5 10.7q2.9 0 5.1-0.9c6-2.3 13.2-3.4 18.2-3.9-11.8-8.5-38.6-29.5-33.1-42.3 2-4.6 6.8-7 14.4-7.2 4.3-0.1 9.1 0.5 13.7 1.4-15.9-8.7-40.3-23.6-70.3-46.6-48.4-37-49-59.4-48.1-65.2-22.8-21-40.3-43.3-51.8-66.4-9.6-19.1-14.7-38.4-14.4-54.4 0.2-12.3 3.6-21.8 9.6-26.8 4.6-3.9 10.6-6 17.6-6.1 9.5-0.2 19.2 3 25.8 5.8-4.5-7.5-8.9-19.9-1-33.7 4.6-8 12.6-12.4 23.3-12.6 8.7-0.2 17 2.3 21.1 3.7 0.4-1.6 1.2-3.8 2.8-6 2.9-3.9 9.2-8.6 22.4-9 4-0.1 8.5 0.3 13.3 1 35.3 5.2 65.9 39 70.3 44.1 38.2 6.4 63.2 31 77.4 50.6 17.7 24.4 26 50.4 26.4 65.4 0.4 16.2-6.9 18.8-11.3 18.9-11 0.2-25.8-13.4-35.2-25.2-10.5-13.4-38.3-27.4-62.8-26.8-9.4 0.2-22 2.9-29.2 14-8.4 13.2-8.4 29 0 46.8 4.9 10.6 11.6 18.9 14.3 22.1 2.4-1.7 7.3-4.3 13.6-4.5 7.9-0.2 15.4 3.7 22.2 11.4 5.2 5.9 11.6 15.4 19 26.4 18.4 27.2 43.5 64.5 74.6 85 17.4 11.4 28.6 13.6 34.9 13.4 5.6-0.1 9.8-2.2 12.2-6 3.7-6.1 2.9-15.9-2.3-26.9-13.3-28.2-41.1-27.9-42.2-27.8h-2.1l-0.1-2c-0.5-7.7 2.5-15.7 8.2-22 6.9-7.5 17.1-11.9 28.6-12.1 14.8-0.4 38.9 5.6 70.1 36.2 25.8 25.3 38.3 48 44.2 62.5 7.2 17.6 8.9 33.6 4.9 44-2.6 6.6-7.5 10.3-13.7 10.4q-2.5 0.1-5.2-0.7c-5-1.3-10.9-3.7-17.3-6.2-10.5-4.3-22.5-9.1-30.4-8.9-3.1 0.1-5.2 0.9-6.6 2.5-1.9 2.2-2.5 6-1.9 11.4 3.4 27.4 58.6 56.1 70.3 61.9 1.8-4.2 5.8-8.3 14.9-8.5 29.6-0.7 93.5 40.3 108.7 50.3q0.5-2.6 2-4.4c1.9-2.1 4.8-3.2 8.7-3.3 16.6-0.4 51.1 17.6 78.7 32 8.2 4.3 15.9 8.3 21.8 11.1 29.3 14 61.2 22 78.4 26.3q2.8 0.7 5 1.2c15.2 3.9 60 24.9 62 25.8l17.7 8.3z"/>
					<path id="&lt;Path&gt;" class="s10" d="m691.9 1155.6q0.1-0.1 0.2-0.1-0.1 0-0.2 0 0 0.1 0 0.1z"/>
					<path id="&lt;Path&gt;" class="s4" d="m733.4 1129.6c-0.3-12.1 11.7-13.7 16.6-13.8-10.3-1.8-24-1.4-31 10.8-12 21.1 6.3 38.5 6.3 38.5 0 0-0.5-0.3-1.4-0.8 6 4.3 16 10.1 30 13 23.8 4.9 27.6-2.1 27.6-2.1-28.1-5.8-47.7-30.4-48.1-45.6z"/>
					<path id="&lt;Path&gt;" class="s4" d="m771.1 1265.9c0 0-47.6-10.4-79.8-54.6-4.4-6.1-7.7-11.6-10-16.6 0.8 5.4 2.1 11.6 4.3 19 8.8 30 33.8 63.3 45.6 78.1 3.3 3.9 4.2 8.9 2.9 13.1q-0.2 0.7-0.4 1.5c0 0-7.7 22.3 47.1 64.2 46.5 35.6 79.1 51.6 87.8 55.6q1.2 0.5 2.4 1c0 0-63.4-30-101.3-83.2-37.8-53.1-15.8-76.1 1.4-78.1z"/>
					<path id="&lt;Path&gt;" class="s4" d="m972.1 1262.8c-0.4-15.9-10-43.9-29.1-68.4 4.2 7.3 13.5 25.1 7.2 31.5-11.4 11.7-42.4-23-81.4-19.3-30.7 2.9-40.3 41.9-41.2 54.2 0.6-6.2 2.5-12.3 6.4-18.3 18.9-29.7 77.7-9.9 95.4 12.5 17.7 22.5 43.4 37.7 42.7 7.8z"/>
					<path id="&lt;Path&gt;" class="s4" d="m1085.2 1385.1c-1.6-1.6-3.2-3-4.7-4.5 7.8 7.9 22.4 24.7 27.2 47.6 5.7 27-3 31.8-32.9 23.2-23.9-6.9-44.8 10.9-11 60.9-2.7-4.4-4.6-8.9-5.2-13.4-4-32.9 37.8-6.8 58.9-1.1 26.7 7.2 30.4-51.1-32.3-112.7z"/>
					<path id="&lt;Path&gt;" class="s4" d="m684.3 1445.1c-10.7 16 14.4 70.8 112.6 121.5 0 0 1 24.1 54 39.5 43.6 12.7 168.7 36.5 211.8 44.5 4.8 0.9 6.6-5 2.7-8.8l-4.1-3.9c0 0 111.6 21.2 140.8 27.3 29.2 6 39.8-1 36.9-15.9 0 0 60.6 2.9 130.5 17.4 53.4 11.1 76.3 13.4 107.9 19.4-4.8-1.5-55.7-17.1-101.3-26.8-47.9-10.3-100.1-20.8-129.3-27.9-29.2-7.2-28-1.8-26.8 2.9 1.2 4.6-14.2 7.4-42-4.7-27.9-12-54.8-28.6-54.8-28.6 0 0-13.2 34.1-71.3 19.5-58-14.6-75.6-60.2-75.6-60.2 0 0 25.8-0.2 38.4-15.7 0 0-33.3 3.1-63.4-13.5-30.2-16.5-42.1-52.1-42.1-52.1 0 0-10.8 1.4-28.8-3.4 0 0 4.8 6.9 24 15.6 0 0 3 36.4 48.6 66.4 0 0-13.3 30.1-61.5 21.9-48.2-8.1-75.1-51.6-75.1-51.6 0 0-15.1 12.7-49.2-4.7-34.1-17.4-30.8-44.3-30.8-44.3 0 0-19.1-3.6-26.8-26.9 0 0-8.8 3.9-25.3-6.9z"/>
					<path id="&lt;Compound Path&gt;" fill-rule="evenodd" class="s6" d="m1547.6 1705.8l-38.3-8.8c-27.3-6.2-45-9.1-65.6-12.4-19.2-3.1-41-6.7-75.1-13.7-57.4-11.9-109.2-16.1-124.9-17.1q0 6.3-3.5 10.6c-3.7 4.6-10 7-18.7 7.2-5.6 0.1-12.4-0.6-20.3-2.3-23.4-4.8-100.8-19.7-129.7-25.2 0.5 1.9 0.4 3.9-0.3 5.7-1.2 3.1-4 5.1-7.4 5.1q-0.9 0.1-1.9-0.1c-49.5-9.3-169.1-32.2-212.2-44.7-44.8-13-54.4-32.7-56.4-40.3-9.4-3.2-43.5-16.5-89.1-52.5-15.6-12.2-35.2-32.2-40.3-57.5-2.4-11.5-0.8-20.1 0.2-24-5.4-8.1-12.5-22.5-16.6-36.4-5.9-20-4.2-34 4.8-40.6 5.3-3.9 11.3-5.9 17.8-6.1 13-0.3 23.6 7.1 24.1 7.5l14.3 10.1-17.4-2.5q-1.1-0.2-2-0.1c-4.3 0.1-7 2.9-8.1 8.5-1.3 6.6 0.1 15.6 3.6 23.5 4.1 8.9 10.2 15.6 17.4 18.9 6.7 3 12.4 4.5 17 4.4 5.1-0.2 12.1-2 14.4-16.3 1.3-8.4 8.9-14.2 18.7-14.4 12.3-0.3 26 7.5 37.7 21.4 19.2 22.8 18.7 40.1 17.5 46.7 5.5 4.8 16.2 9.5 24.2 9.3q2.5 0 4.3-0.7c4.3-1.7 9.3-2.8 13.6-3.5-3.7-2.7-8-6.2-12.2-10-15.1-13.4-20.8-23.8-17.4-31.6 2.3-5.4 7.8-8.3 16.3-8.5q1.6 0 3.2 0.1c-15.4-9.1-36.3-22.5-61.1-41.5-23.3-17.8-38.5-34.5-45.3-49.5-3.6-7.8-4-13.4-3.7-16.5-22.7-21-40-43.3-51.5-66.3-9.8-19.4-14.9-39.1-14.6-55.4 0.2-12.9 3.9-23 10.3-28.4 5-4.2 11.4-6.5 19-6.6 7.5-0.2 15.1 1.7 21.2 3.9-4.4-10.4-3.8-21 1.7-30.7 5-8.7 13.7-13.5 25.1-13.7 7.7-0.2 15.1 1.6 19.8 3.1 0.5-1.4 1.3-3 2.5-4.6 3.2-4.2 10-9.4 24-9.8q0 0 0 0 0 0 0 0c4.1-0.1 8.8 0.3 13.8 1 34.8 5.1 65 37.5 71 44.3 38.5 6.6 63.6 31.5 78.1 51.3 17.9 24.7 26.3 51.2 26.7 66.6 0.4 18-8.2 20.9-13.4 21-11.8 0.3-26.7-13.3-36.8-26-5.3-6.7-14.7-13.3-26-18.3-11.9-5.2-24.4-7.9-35.2-7.7-8.8 0.2-20.8 2.7-27.4 13-8 12.6-8 27.6 0 44.7 4.3 9.2 9.8 16.5 12.9 20.3 3-1.7 7.5-3.7 13.1-3.8 8.7-0.2 16.7 3.9 23.9 12.1 5.3 6 11.7 15.6 19.2 26.6 18.2 27.1 43.2 64.2 74 84.4 16.9 11.1 27.6 13.3 33.6 13.1 5-0.1 8.5-1.8 10.5-5.1 3.3-5.3 2.4-14.6-2.4-24.8-12.7-27-39.2-26.6-40.3-26.6l-4.1 0.1-0.2-4.1c-0.6-8.3 2.6-16.8 8.7-23.5 7.3-8 18.1-12.6 30.2-12.9 15.2-0.3 39.9 5.8 71.6 36.8 26.1 25.7 38.7 48.6 44.7 63.3 7.3 18.1 9.1 34.7 4.8 45.5-2.9 7.4-8.5 11.7-15.5 11.8q-2.8 0.1-5.8-0.7c-5.1-1.4-11.2-3.8-17.6-6.4-10.3-4.1-22.1-8.9-29.5-8.7-3.7 0.1-4.8 1.4-5.1 1.8-1.5 1.7-2 5-1.4 9.8 1.5 11.8 14 26 36.4 41.2 12.5 8.4 24.8 15 30.9 18.1 2.3-3.8 6.9-7.6 15.8-7.8 28.8-0.7 88.9 36.9 107.5 49.1q0.7-1.4 1.7-2.5c2.2-2.5 5.6-3.9 10.2-4 17.1-0.4 51.8 17.7 79.7 32.2 8.1 4.3 15.8 8.3 21.7 11.1 29.1 13.9 60.9 21.8 78 26.1q2.8 0.7 5.1 1.3c15.3 3.9 60.3 25 62.2 25.9zm-37.3-12.9c0 0-46.4-21.7-61.6-25.6-15.1-3.9-51.1-12.1-83.8-27.7-25.3-12.1-78.5-43.3-99.5-42.8-6 0.1-9.4 2.8-8.8 9.4 0 0-77.9-52.8-110.6-52.1-7.2 0.2-12.2 2.9-13.7 9.4 0 0-69.7-32.6-73.6-64.6-1.5-12 3.1-16.1 10.5-16.3 13.1-0.3 34.9 11.6 48.3 15.2q2.4 0.7 4.6 0.6c22.4-0.5 22-55.5-36.9-113.3-27.4-26.9-50.8-36-68.5-35.6-22.7 0.5-35.7 17-34.8 31.9q0 0 0 0c0.9-0.1 30.3-0.5 44.3 29 9.2 19.7 4.8 35.6-11.9 36-8.7 0.2-20.8-3.9-36-13.9-44.2-29-76.4-91.4-94.1-111.7-7.4-8.5-14.6-10.8-20.6-10.7-8.2 0.2-13.9 5.2-13.9 5.2 0 0-37.1-39.3-15.7-72.8 6.6-10.3 18-14.7 30.9-15 24-0.6 53 12.9 64.5 27.6 10.8 13.6 24.5 24.6 33.4 24.4 5.8-0.2 9.6-5 9.3-16.7-0.7-30-34.2-103.2-102.7-114.1 0 0-32.5-38.5-69.5-44-5-0.7-9.3-1-13.1-0.9-23.9 0.5-23.5 15.8-23.5 15.8 0 0-11.1-4.9-22.7-4.6-8.2 0.2-16.6 2.9-21.6 11.6-12 21.1 6.3 38.5 6.3 38.5 0 0-16.8-10-32.8-9.6-5.9 0.2-11.6 1.7-16.4 5.7-17.5 14.8-13.8 80 57.6 145.2 0 0-7.7 22.3 47.1 64.2 54.8 41.9 90.2 56.7 90.2 56.7 0 0-20.5-8-34.8-7.6-5.9 0.1-10.7 1.7-12.5 5.9-6.1 14.2 37.2 43 37.2 43 0 0-13.6 0.5-23.5 4.3-1.8 0.7-3.7 1-5.8 1.1-10 0.2-23.1-5.9-28.9-12.3 0 0 6.7-18.1-16.1-45.3-12.4-14.6-25-20.1-34.3-19.8-8.1 0.2-13.7 4.5-14.7 10.8-1.6 9.7-6.1 19.5-18.5 19.8-4.9 0.1-11.1-1.3-18.8-4.7-26.1-11.8-32.5-58.6-11.3-59.1q1.3 0 2.8 0.2c0 0-9.8-6.9-21.6-6.6-4.9 0.1-10.3 1.5-15.4 5.2-17.3 12.7 3.9 59 13.9 72.9 0 0-14.5 37.5 38.1 78.9 52.6 41.5 90.2 52.6 90.2 52.6 0 0 0.9 24.1 53.9 39.5 43.7 12.7 168.7 36.5 211.8 44.5q0.6 0.1 1.1 0.1c4-0.1 5.3-5.4 1.6-8.9l-4-3.9c0 0 111.6 21.3 140.7 27.3 7.7 1.6 14.1 2.3 19.3 2.2 14.5-0.4 19.7-7.1 17.6-18.1 0 0 60.7 3 130.5 17.4 69.9 14.5 87.5 14.1 140.8 26.2z"/>
				</g>
			</g>
			<g id="&lt;Group&gt;">
				<g id="&lt;Group&gt;">
					<path id="&lt;Path&gt;" class="s1" d="m1394 1296.5c12.8-15 28.5-27 45.6-35.2l-5-8.2c-16.6 11.6-30.4 26.6-40.6 43.4z"/>
				</g>
				<g id="&lt;Group&gt;">
					<path id="&lt;Path&gt;" class="s1" d="m1414.5 1345.4c6.7-17.6 20.2-31.6 35.8-39l-5-8.2c-16.2 11.4-27.2 28.8-30.8 47.2z"/>
				</g>
				<g id="&lt;Group&gt;">
					<path id="&lt;Path&gt;" class="s1" d="m1426.5 1348.6c6.8-11 17.7-18.4 28.8-20.7l-3.6-9c-12.3 6.4-21.4 17.5-25.2 29.7z"/>
				</g>
				<g id="&lt;Group&gt;">
					<path id="&lt;Path&gt;" class="s1" d="m1446.1 1271.8c6.8-4.1 14.6-6.8 22.6-8.2 4-0.6 8.1-1 12.2-1q6.2 0 12.4 1.1c8.1 1.6 16.2 4.4 23.4 8.9 7.3 4.5 13.7 10.6 18.8 17.5l-8.1 5.3c-3.8-6.4-8.8-12.2-14.8-16.8-6-4.6-13.1-8-20.5-10.2q-5.6-1.6-11.4-2.2c-3.9-0.4-7.8-0.4-11.7-0.2-7.9 0.6-15.7 2.4-22.9 5.8z"/>
				</g>
				<g id="&lt;Group&gt;">
					<path id="&lt;Path&gt;" class="s1" d="m1459.4 1283.7c24.4-7.6 53.1-3.5 75.5 12.4l-6.1 7.5c-17.9-16.4-44.3-24.4-69.4-19.9z"/>
				</g>
				<g id="&lt;Group&gt;">
					<path id="&lt;Path&gt;" class="s1" d="m1554.2 1305.5c5.6 8.4 9.8 17.8 13.4 27.4 3.6 9.6 6.5 19.4 9.1 29.4q3.9 14.9 6.6 30.2c1.8 10.1 3.2 20.4 4 30.8l-9.7 0.3c0-10-0.6-20.1-1.5-30.2q-1.5-15.1-4.1-30.1c-1.8-10-3.9-19.9-6.7-29.7-2.8-9.7-6.2-19.3-11.1-28.1z"/>
				</g>
				<g id="&lt;Group&gt;">
					<path id="&lt;Path&gt;" class="s1" d="m1546.3 1322.6c3.5 7.8 6.2 16.1 8.6 24.4 2.4 8.3 4.5 16.8 6.4 25.2 3.9 17 7.1 34.1 10.2 51.1l-9.6 1.2c-1.5-17.2-3.1-34.4-5.3-51.4-1.2-8.6-2.4-17.1-4-25.6-1.7-8.4-3.5-16.8-6.3-24.9z"/>
				</g>
				<g id="&lt;Group&gt;">
					<path id="&lt;Path&gt;" class="s1" d="m1539.7 1361.6c3.3 9.5 5.9 19.4 8 29.3q3.2 14.9 5 30.2l-9.7 0.3c0.4-10 0.4-20-0.1-29.9-0.5-10-1.5-20-3.2-29.9z"/>
				</g>
				<g id="&lt;Group&gt;">
					<path id="&lt;Path&gt;" class="s1" d="m1582.3 1463c0.4 9.7-0.4 19.5-1.8 29.2-1.5 9.7-3.7 19.3-6.3 28.8-2.6 9.5-5.8 18.9-9.5 28.2-3.7 9.2-8 18.2-13.5 26.9l-7.9-5.6c5.6-7.4 10.5-15.8 14.8-24.4 4.3-8.6 8.1-17.5 11.5-26.6 3.3-9.1 6.2-18.3 8.5-27.8 2.2-9.4 3.8-19 4.2-28.7z"/>
				</g>
				<g id="&lt;Group&gt;">
					<path id="&lt;Path&gt;" class="s1" d="m1562.5 1483.5c-1.5 12.2-4.1 24.3-7.9 36.2-2 5.9-4.2 11.8-6.9 17.5-2.7 5.8-5.9 11.4-10.1 16.6l-7.1-6.6c4.1-3.9 7.7-8.6 10.9-13.6 3.2-5 6.1-10.3 8.7-15.7 5.1-11 9.3-22.6 12.4-34.4z"/>
				</g>
				<g id="&lt;Group&gt;">
					<path id="&lt;Path&gt;" class="s1" d="m1547.2 1491.5c-3.9 12.5-9.9 24.6-17.9 35.7l-6.9-6.7c9.5-8.1 18-17.9 24.8-29z"/>
				</g>
				<g id="&lt;Group&gt;">
					<path id="&lt;Path&gt;" class="s1" d="m1522.3 1594.1c-9 3.5-18.8 5.4-28.7 6.1-10 0.6-20.1-0.1-30.1-1.9l2.7-9.3c8.8 3.2 18.1 5.3 27.5 6.3 9.5 1 19.2 0.7 28.6-1.2z"/>
				</g>
				<g id="&lt;Group&gt;">
					<path id="&lt;Path&gt;" class="s1" d="m1506.8 1579.4c-3.3 0.9-6.9 1.4-10.4 1.7q-5.4 0.3-10.8 0c-3.7-0.2-7.3-0.6-11-1.3-3.6-0.7-7.3-1.6-11.1-3.3l5.1-8.3c2.3 1.8 5.2 3.3 8.3 4.7 3.1 1.3 6.3 2.5 9.6 3.4q4.9 1.5 10 2.3c3.4 0.6 6.9 0.9 10.3 0.8z"/>
				</g>
				<g id="&lt;Group&gt;">
					<path id="&lt;Path&gt;" class="s15" d="m1395.9 1468.5c-1.3-4.8-2.2-9.7-3-14.7q-1.1-7.4-1.7-14.9c-0.5-5-0.7-10-0.7-15.2 0.1-5.1 0.3-10.2 1.6-15.8l9.1 3.1c-1.6 4-2.7 8.7-3.5 13.5-0.8 4.7-1.3 9.6-1.7 14.5q-0.6 7.3-0.6 14.7c-0.1 4.9 0 9.9 0.5 14.8z"/>
				</g>
				<g id="&lt;Group&gt;">
					<path id="&lt;Path&gt;" class="s15" d="m1406.8 1451.4c-1.9-5.7-2.6-12-2.8-18.2-0.2-6.2 0.2-12.5 0.7-18.6l9.4 2.2c-2 5.7-3.9 11.3-5.3 17-1.4 5.8-2.3 11.6-2 17.6z"/>
				</g>
				<g id="&lt;Group&gt;">
					<path id="&lt;Path&gt;" class="s1" d="m1436.5 1557.7c-3.8-2.8-7.1-6.4-10.1-10.2-3.1-3.9-5.8-7.9-8.4-12.1-5.2-8.4-9.8-17.1-14.2-25.8l9-3.5c2.9 9.2 5.9 18.3 9.5 27.1 1.8 4.4 3.8 8.8 6.1 13 2.3 4.1 4.9 8.1 8.1 11.5z"/>
				</g>
				<g id="&lt;Group&gt;">
					<path id="&lt;Path&gt;" class="s1" d="m1437.4 1531.4c-7.5-9.9-13.5-21.4-17.7-33.8l9.6-1.7c0.8 12 3.4 24 8.1 35.5z"/>
				</g>
				<g id="&lt;Group&gt;">
					<path id="&lt;Path&gt;" class="s1" d="m1388 1307.2c0 0-0.5 1.3-1.6 3.8-1.1 2.5-2.8 6-4.6 10.7-3.8 9.3-8.6 22.9-12.6 39.5-3.8 16.6-6.9 36.4-7.5 57.7q-0.1 4-0.1 8c-0.1 1.4 0 2.7 0 4.1q0.1 2 0.1 4.1 0.1 2 0.1 4.1c0 1.3 0.2 2.7 0.2 4.1q0.3 4.1 0.6 8.3c1 11.1 2.6 22.4 4.8 33.6 0 0-0.4-1.4-1.1-4q-0.5-2-1.2-4.8c-0.6-1.9-1-4-1.5-6.5-2.2-9.8-4.5-24-5.1-41.2-0.5-17.3 0.8-37.5 5.4-58.6 2.4-10.6 5.6-21.3 9.5-31.9 4.1-10.6 9-21 14.6-31z"/>
				</g>
				<g id="&lt;Group&gt;">
					<path id="&lt;Path&gt;" class="s1" d="m1583.9 1360.7c0 0 0.3 1.3 1 3.9 0.6 2.6 1.6 6.4 2.6 11.3 2.1 9.7 4.9 23.7 6.7 40.7q0.3 3.2 0.7 6.5 0.2 3.3 0.4 6.8c0.4 4.6 0.5 9.3 0.6 14.2 0.1 9.8-0.1 20.1-1.2 30.7-0.5 5.3-1.3 10.7-2.1 16.1-0.4 2.7-1 5.4-1.5 8.1q-0.4 2.1-0.7 4.1-0.5 2-1 4.1-1 4-1.9 8.1-1.2 4-2.4 8.1l-1.2 4-1.4 4q-1.4 4-2.8 8c0 0 0.3-1.4 0.9-4q0.4-1.9 1.1-4.7c0.4-1.9 0.9-4 1.3-6.5q0.7-3.6 1.6-8c0.3-1.4 0.5-2.9 0.7-4.5q0.4-2.4 0.8-4.9c0.3-1.7 0.6-3.5 0.8-5.3q0.4-2.7 0.7-5.5c0.2-1.9 0.5-3.9 0.7-5.9q0.3-3 0.6-6.1c0.9-8.4 1.3-17.5 1.6-27.1q0.1-3.6 0.1-7.3 0-1.9 0.1-3.7c0-1.3-0.1-2.5-0.1-3.8q-0.1-3.8-0.1-7.7-0.2-3.9-0.3-7.8c-0.9-21-3.4-43.5-6.3-65.9z"/>
				</g>
				<g id="&lt;Group&gt;">
					<path id="&lt;Path&gt;" class="s1" d="m1427.4 1293.5c4.7-3.1 10-4.3 14.6-4l-3.4-9.1c-5.3 3.4-9.1 8.1-11.2 13.1z"/>
				</g>
				<g id="&lt;Group&gt;">
					<path id="&lt;Path&gt;" class="s12" d="m1418.3 1565.9c-12.8-16.4-23.4-35-31.1-55l9.4-2.6c4.3 19.9 11.6 39.4 21.7 57.6z"/>
				</g>
				<g id="&lt;Group&gt;">
					<path id="&lt;Path&gt;" class="s11" d="m1378.7 1459.3c-6-25.3-6.7-52.3-1.5-78.7l9.4 2.6c-8 24.1-10.7 50.3-7.9 76.1z"/>
				</g>
				<g id="&lt;Group&gt;">
					<path id="&lt;Path&gt;" class="s12" d="m1398.3 1319.3c0.8-3.3 2.1-6.6 3.7-9.7 1.6-3.2 3.4-6.3 5.3-9.3q2.9-4.5 6.2-8.7 1.6-2.2 3.4-4.3c1.2-1.4 5.4-5.1 6.9-6.5l2 10.8c-2.5 1.5-4.6 3-7.2 5.1q-4 3.2-7.6 6.8c-2.5 2.3-4.8 4.8-7 7.4-2.2 2.6-4.2 5.4-5.7 8.4z"/>
				</g>
				<g id="&lt;Group&gt;">
					<path id="&lt;Path&gt;" class="s12" d="m1480 1293.5c14.4-1.3 29.7 1.1 43.8 7.5l-5.1 8.3c-10.9-8.3-24.4-13.9-38.7-15.8z"/>
				</g>
			</g>
		</g>
	</g>
</svg>